<svg
    xmlns="http://www.w3.org/2000/svg"
    width="26.761"
    height="24.839"
>
    <defs>
        <style>
            .prefix__prefix__cls-10,
            .prefix__prefix__cls-2,
            .prefix__prefix__cls-3,
            .prefix__prefix__cls-4,
            .prefix__prefix__cls-5,
            .prefix__prefix__cls-6,
            .prefix__prefix__cls-7 {
                stroke-linecap: round;
                stroke-linejoin: round;
                stroke-width: .406px
            }

            .prefix__prefix__cls-2 {
                fill: #e4761b;
                stroke: #e4761b
            }

            .prefix__prefix__cls-3 {
                fill: #d7c1b3;
                stroke: #d7c1b3
            }

            .prefix__prefix__cls-4 {
                fill: #233447;
                stroke: #233447
            }

            .prefix__prefix__cls-5 {
                fill: #cd6116;
                stroke: #cd6116
            }

            .prefix__prefix__cls-6 {
                fill: #e4751f;
                stroke: #e4751f
            }

            .prefix__prefix__cls-7 {
                fill: #f6851b;
                stroke: #f6851b
            }

            .prefix__prefix__cls-10 {
                fill: #763d16;
                stroke: #763d16
            }

        </style>
    </defs>
    <g
        id="prefix__prefix__metamask-fox"
        transform="translate(.203 .203)"
    >
        <path
            id="prefix__prefix__Path_1"
            fill="#24201e"
            stroke="#e2761b"
            stroke-linecap="round"
            stroke-linejoin="round"
            stroke-width=".406"
            d="M25.042 0L14.758 7.638l1.9-4.506z"
        />
        <g
            id="prefix__prefix__Group_1"
            transform="translate(.217)"
        >
            <path
                id="prefix__prefix__Path_2"
                d="M18.038 14.422l10.2 7.71-1.808-4.579z"
                class="prefix__prefix__cls-2"
                transform="translate(-16.952 -14.422)"
            />
            <path
                id="prefix__prefix__Path_3"
                d="M88.783 84.012l-2.739 4.2 5.86 1.612 1.685-5.715z"
                class="prefix__prefix__cls-2"
                transform="translate(-67.657 -66.308)"
            />
            <path
                id="prefix__prefix__Path_4"
                d="M13.772 84.106l1.674 5.715 5.86-1.612-2.739-4.2z"
                class="prefix__prefix__cls-2"
                transform="translate(-13.772 -66.308)"
            />
            <path
                id="prefix__prefix__Path_5"
                d="M37.3 45.815l-1.633 2.47 5.819.258-.207-6.253z"
                class="prefix__prefix__cls-2"
                transform="translate(-30.098 -35.201)"
            />
            <path
                id="prefix__prefix__Path_6"
                d="M75.1 45.6L71.069 42l-.134 6.325 5.808-.258z"
                class="prefix__prefix__cls-2"
                transform="translate(-56.39 -34.989)"
            />
            <path
                id="prefix__prefix__Path_7"
                d="M43.388 88.6l3.493-1.7-3.018-2.356z"
                class="prefix__prefix__cls-2"
                transform="translate(-35.853 -66.702)"
            />
            <path
                id="prefix__prefix__Path_8"
                d="M72.272 86.9l3.5 1.705-.486-4.062z"
                class="prefix__prefix__cls-2"
                transform="translate(-57.389 -66.702)"
            />
        </g>
        <g
            id="prefix__prefix__Group_2"
            transform="translate(7.751 20.195)"
        >
            <path
                id="prefix__prefix__Path_9"
                d="M75.776 95.508l-3.5-1.705.279 2.284-.031.961z"
                class="prefix__prefix__cls-3"
                transform="translate(-64.924 -93.803)"
            />
            <path
                id="prefix__prefix__Path_10"
                d="M43.388 95.508l3.256 1.54-.021-.961.258-2.284z"
                class="prefix__prefix__cls-3"
                transform="translate(-43.388 -93.803)"
            />
        </g>
        <path
            id="prefix__prefix__Path_11"
            d="M47.846 73.339l-2.915-.858 2.057-.941z"
            class="prefix__prefix__cls-4"
            transform="translate(-36.787 -57.009)"
        />
        <path
            id="prefix__prefix__Path_12"
            d="M73 73.339l.858-1.8 2.067.941z"
            class="prefix__prefix__cls-4"
            transform="translate(-57.717 -57.009)"
        />
        <g
            id="prefix__prefix__Group_3"
            transform="translate(5.013 13.084)"
        >
            <path
                id="prefix__prefix__Path_13"
                d="M35.361 88.209l.5-4.2-3.235.093z"
                class="prefix__prefix__cls-5"
                transform="translate(-32.622 -79.393)"
            />
            <path
                id="prefix__prefix__Path_14"
                d="M84.094 84.012l.5 4.2 2.739-4.1z"
                class="prefix__prefix__cls-5"
                transform="translate(-70.999 -79.393)"
            />
            <path
                id="prefix__prefix__Path_15"
                d="M76.74 65.853l-5.808.258.537 2.987.858-1.8 2.067.941z"
                class="prefix__prefix__cls-5"
                transform="translate(-61.185 -65.853)"
            />
            <path
                id="prefix__prefix__Path_16"
                d="M38.025 68.241l2.067-.941.847 1.8.548-2.987-5.819-.258z"
                class="prefix__prefix__cls-5"
                transform="translate(-34.894 -65.853)"
            />
        </g>
        <g
            id="prefix__prefix__Group_4"
            transform="translate(5.788 13.084)"
        >
            <path
                id="prefix__prefix__Path_17"
                d="M35.669 65.853l2.439 4.754-.083-2.367z"
                class="prefix__prefix__cls-6"
                transform="translate(-35.669 -65.853)"
            />
            <path
                id="prefix__prefix__Path_18"
                d="M84.238 68.241l-.1 2.367 2.449-4.754z"
                class="prefix__prefix__cls-6"
                transform="translate(-71.804 -65.853)"
            />
            <path
                id="prefix__prefix__Path_19"
                d="M56.935 66.869l-.548 2.987.682 3.524.155-4.641z"
                class="prefix__prefix__cls-6"
                transform="translate(-51.117 -66.61)"
            />
            <path
                id="prefix__prefix__Path_20"
                d="M70.113 66.869l-.279 1.86.124 4.651.692-3.524z"
                class="prefix__prefix__cls-6"
                transform="translate(-61.142 -66.61)"
            />
        </g>
        <path
            id="prefix__prefix__Path_21"
            d="M71.014 76.1l-.692 3.524.5.341 3.014-2.365.1-2.367z"
            class="prefix__prefix__cls-7"
            transform="translate(-55.718 -59.766)"
        />
        <path
            id="prefix__prefix__Path_22"
            d="M44.931 75.238l.083 2.367 3.018 2.356.5-.341-.686-3.52z"
            class="prefix__prefix__cls-7"
            transform="translate(-36.787 -59.766)"
        />
        <path
            id="prefix__prefix__Path_23"
            fill="#c0ad9e"
            stroke="#c0ad9e"
            stroke-linecap="round"
            stroke-linejoin="round"
            stroke-width=".406"
            d="M15.348 23.44l.031-.961-.258-.227h-3.9l-.238.227.021.961-3.256-1.54 1.137.93 2.3 1.6h3.958l2.315-1.6 1.137-.93z"
        />
        <path
            id="prefix__prefix__Path_24"
            fill="#161616"
            stroke="#161616"
            stroke-linecap="round"
            stroke-linejoin="round"
            stroke-width=".406"
            d="M15.1 20.192l-.5-.341h-2.859l-.5.341-.258 2.288.238-.227h3.9l.258.227z"
        />
        <g id="prefix__prefix__Group_5">
            <path
                id="prefix__prefix__Path_25"
                d="M82.648 22.556l.879-4.217-1.313-3.917-9.942 7.378 3.828 3.236 5.4 1.581 1.2-1.4-.517-.372.827-.754-.641-.5.827-.63z"
                class="prefix__prefix__cls-10"
                transform="translate(-57.172 -14.422)"
            />
            <path
                id="prefix__prefix__Path_26"
                d="M12.919 18.339l.878 4.217-.558.413.827.63-.63.5.827.754-.517.372 1.189 1.4 5.405-1.581 3.824-3.244-9.943-7.379z"
                class="prefix__prefix__cls-10"
                transform="translate(-12.919 -14.422)"
            />
        </g>
        <path
            id="prefix__prefix__Path_27"
            d="M90.346 57.725l-5.405-1.581 1.643 2.47-2.449 4.754 3.225-.041h4.806z"
            class="prefix__prefix__cls-7"
            transform="translate(-66.017 -45.529)"
        />
        <path
            id="prefix__prefix__Path_28"
            d="M20.976 56.144l-5.406 1.581-1.8 5.6h4.8l3.214.041-2.439-4.754z"
            class="prefix__prefix__cls-7"
            transform="translate(-13.555 -45.529)"
        />
        <path
            id="prefix__prefix__Path_29"
            d="M56.089 36.942l.341-5.963L58 26.731h-6.975l1.55 4.248.362 5.963.124 1.881.01 4.63h2.863l.021-4.63z"
            class="prefix__prefix__cls-7"
            transform="translate(-41.331 -23.6)"
        />
    </g>
</svg>
