<svg
    xmlns="http://www.w3.org/2000/svg"
    width="26.808"
    height="16.431"
>
    <path
        fill="#3b99fc"
        d="M5.488 3.21a11.364 11.364 0 0115.832 0l.526.515a.54.54 0 010 .775l-1.8 1.76a.284.284 0 01-.4 0l-.724-.709a7.928 7.928 0 00-11.044 0l-.775.759a.284.284 0 01-.4 0l-1.8-1.762a.54.54 0 010-.775zm19.554 3.645l1.6 1.568a.54.54 0 010 .775l-7.221 7.072a.568.568 0 01-.792 0l-5.126-5.019a.142.142 0 00-.2 0L8.178 16.27a.568.568 0 01-.792 0L.162 9.198a.54.54 0 010-.775l1.6-1.568a.568.568 0 01.792 0l5.126 5.019a.142.142 0 00.2 0l5.126-5.019a.568.568 0 01.792 0l5.126 5.019a.142.142 0 00.2 0l5.126-5.019a.568.568 0 01.792 0z"
    /></svg>
