<?xml version="1.0" standalone="no"?>
<!DOCTYPE svg PUBLIC "-//W3C//DTD SVG 20010904//EN"
 "http://www.w3.org/TR/2001/REC-SVG-20010904/DTD/svg10.dtd">
<svg version="1.0" xmlns="http://www.w3.org/2000/svg"
 width="550.000000pt" height="550.000000pt" viewBox="0 0 550.000000 550.000000"
 preserveAspectRatio="xMidYMid meet">
<metadata>
Created by potrace 1.11, written by Peter Selinger 2001-2013
</metadata>
<g transform="translate(0.000000,550.000000) scale(0.100000,-0.100000)"
fill="#000000" stroke="none">
<path d="M2367 5383 c-1 -1 -29 -4 -62 -8 -33 -3 -67 -8 -75 -10 -8 -2 -35 -7
-60 -10 -25 -3 -72 -13 -105 -22 -33 -8 -71 -17 -85 -19 -68 -12 -329 -109
-437 -163 -104 -51 -254 -136 -288 -163 -5 -4 -57 -42 -115 -85 -121 -89 -346
-309 -441 -433 -181 -234 -328 -516 -405 -779 -14 -47 -27 -93 -29 -101 -1 -8
-8 -33 -13 -55 -6 -22 -13 -51 -16 -65 -4 -28 -13 -80 -21 -125 -27 -160 -27
-568 -1 -711 2 -11 7 -39 11 -64 13 -82 74 -309 110 -408 74 -202 195 -426
326 -602 85 -115 104 -136 249 -280 196 -196 387 -331 642 -454 179 -86 408
-164 563 -191 17 -2 41 -7 55 -10 14 -3 48 -8 75 -11 28 -3 56 -7 63 -10 7 -2
73 -7 147 -10 l135 -7 0 2402 0 2403 -111 -4 c-61 -2 -111 -4 -112 -5z"/>
<path d="M2910 2510 l0 -2403 136 6 c74 4 138 8 142 11 4 2 36 7 71 10 35 4
93 14 130 22 36 9 77 18 91 20 53 10 250 74 336 109 209 87 464 238 619 368
108 90 311 303 391 410 237 316 402 702 454 1062 6 44 14 91 17 105 9 43 12
462 3 525 -5 33 -11 80 -14 105 -14 107 -60 308 -86 375 -5 11 -20 56 -35 100
-52 156 -234 495 -327 610 -9 11 -40 49 -69 85 -73 91 -269 285 -363 359 -280
221 -606 380 -946 459 -75 18 -120 26 -260 47 -19 3 -92 8 -162 12 l-128 6 0
-2403z"/>
</g>
</svg>
