<svg width="206" height="33" viewBox="0 0 206 33" fill="none" xmlns="http://www.w3.org/2000/svg">
<path d="M50.1433 22.1876C51.4324 22.1876 52.6863 22.0001 53.9051 21.6133C55.1238 21.2383 56.1316 20.7344 56.9168 20.1133V12.4493H49.7918V15.836H53.0613V17.7696C52.1238 18.2852 51.1511 18.5313 50.1433 18.5313C49.4402 18.5313 48.7957 18.4024 48.2097 18.1329C47.6238 17.8751 47.1433 17.5118 46.7566 17.0547C46.3699 16.6094 46.0769 16.0704 45.866 15.461C45.6551 14.8516 45.5496 14.2071 45.5496 13.5157C45.5496 12.7422 45.6668 12.0391 45.9011 11.3946C46.1355 10.7618 46.4636 10.2227 46.8621 9.80084C47.2605 9.37896 47.7293 9.06256 48.2683 8.82818C48.8074 8.60552 49.3699 8.48834 49.9793 8.48834C51.5261 8.48834 52.8855 9.05084 54.0457 10.1758L56.8816 7.76177C56.0379 6.78912 54.9949 6.03912 53.7527 5.51177C52.5105 4.98443 51.2566 4.7149 49.991 4.7149C48.6551 4.7149 47.448 4.94927 46.3582 5.39459C45.2566 5.85162 44.3543 6.47271 43.6277 7.25787C42.9011 8.05474 42.3504 8.98052 41.9519 10.0469C41.5535 11.1251 41.366 12.2735 41.366 13.5157C41.366 14.6055 41.5066 15.6133 41.7996 16.5391C42.0926 17.4766 42.5027 18.2852 43.0418 18.9649C43.5691 19.6563 44.2019 20.2422 44.9285 20.7344C45.6551 21.2266 46.4519 21.5899 47.3426 21.8243C48.2215 22.0704 49.159 22.1876 50.1433 22.1876ZM66.6082 10.0352C65.9168 10.0352 65.2722 10.1758 64.6629 10.4571C64.0535 10.7383 63.5144 11.1485 63.0574 11.6758H63.034V10.2579H59.284V22.0001H63.034V16.1055C63.034 15.5196 63.116 15.0157 63.3035 14.5938C63.491 14.1836 63.7371 13.879 64.0652 13.6797C64.3816 13.4922 64.7566 13.3868 65.1902 13.3868C65.6238 13.3868 65.9754 13.4688 66.2332 13.6094C66.491 13.7501 66.7019 14.0079 66.8426 14.3829C66.9832 14.7579 67.0652 15.2501 67.0652 15.8829V22.0001H70.8152V14.9571C70.8152 14.0665 70.7097 13.293 70.5105 12.6368C70.2996 11.9922 70.0066 11.4766 69.6199 11.1016C69.2332 10.7266 68.7996 10.4571 68.3074 10.293C67.8152 10.129 67.241 10.0352 66.6082 10.0352ZM78.9363 22.2344C80.1551 22.2344 81.2566 21.9883 82.2176 21.4727C83.1785 20.9571 83.9168 20.2422 84.4558 19.3165C84.9949 18.3907 85.2644 17.336 85.2644 16.1407C85.2644 14.9571 84.9949 13.9024 84.4558 12.9649C83.9168 12.0391 83.1785 11.3243 82.2176 10.8086C81.2566 10.293 80.1551 10.0352 78.9363 10.0352C77.9988 10.0352 77.1433 10.1876 76.3582 10.4922C75.5613 10.7969 74.8933 11.2188 74.3426 11.7579C73.7918 12.2969 73.3582 12.9415 73.0535 13.6915C72.7488 14.4415 72.5965 15.2618 72.5965 16.1407C72.5965 17.0313 72.7488 17.8516 73.0535 18.6016C73.3582 19.3516 73.7918 19.9961 74.3426 20.5352C74.8933 21.0743 75.5613 21.4844 76.3582 21.7891C77.1433 22.0938 77.9988 22.2344 78.9363 22.2344ZM78.9363 18.8946C78.198 18.8946 77.5886 18.6368 77.1082 18.1094C76.616 17.5938 76.3816 16.9376 76.3816 16.1407C76.3816 15.3438 76.616 14.6758 77.0965 14.1602C77.5652 13.6446 78.1863 13.3868 78.9363 13.3868C79.6629 13.3868 80.2722 13.6446 80.7527 14.1602C81.2332 14.6758 81.4793 15.3321 81.4793 16.1407C81.4793 16.9376 81.2332 17.6055 80.741 18.1211C80.2488 18.6368 79.6511 18.8946 78.9363 18.8946ZM91.1004 22.2344C91.8738 22.2344 92.5652 22.1407 93.1746 21.9532C93.784 21.7657 94.2761 21.4961 94.6629 21.1563C95.0379 20.8165 95.3308 20.418 95.5301 19.961C95.7176 19.504 95.823 19.0001 95.823 18.4376C95.823 18.2032 95.7996 17.9922 95.7761 17.793C95.7527 17.5938 95.7058 17.4063 95.6472 17.2305C95.5769 17.0547 95.5183 16.8907 95.448 16.7501C95.3777 16.6094 95.2722 16.4805 95.1551 16.3399C95.0261 16.1993 94.909 16.0821 94.7918 15.9766C94.6746 15.8829 94.5222 15.7774 94.3347 15.6602C94.1472 15.5547 93.9832 15.461 93.8191 15.379C93.6551 15.2969 93.4558 15.2032 93.2215 15.0977C92.9754 15.004 92.7527 14.9102 92.5535 14.8399C92.3543 14.7696 92.1082 14.6758 91.8152 14.5586C91.2644 14.3711 90.866 14.1954 90.6316 14.0313C90.3972 13.879 90.2801 13.7266 90.2801 13.5743C90.2801 13.3633 90.3621 13.211 90.5379 13.1172C90.7019 13.0235 90.9011 12.9766 91.1121 12.9766C91.5222 12.9766 91.9676 13.0821 92.448 13.293C92.9168 13.504 93.3621 13.8086 93.7605 14.2071L95.5418 11.5235C95.073 11.1836 94.616 10.9024 94.1707 10.6915C93.7136 10.4805 93.2332 10.3165 92.741 10.1993C92.2371 10.0938 91.698 10.0352 91.1238 10.0352C90.2918 10.0352 89.5418 10.1876 88.8855 10.4805C88.2176 10.7852 87.6902 11.2188 87.3035 11.7813C86.9051 12.3438 86.7176 13.0001 86.7176 13.7383C86.7176 14.0665 86.741 14.3829 86.8113 14.6641C86.8816 14.9454 86.9754 15.2032 87.0926 15.4258C87.2097 15.6602 87.3621 15.8711 87.5496 16.0704C87.7254 16.2696 87.9129 16.4454 88.1121 16.586C88.3113 16.7383 88.5457 16.879 88.8035 17.0196C89.0613 17.1602 89.3074 17.2774 89.5652 17.3711C89.8113 17.4649 90.0808 17.5586 90.3855 17.6524C91.0769 17.8751 91.5457 18.0626 91.8035 18.2032C92.0613 18.3438 92.1902 18.4961 92.1902 18.6485C92.1902 18.7891 92.1433 18.918 92.0613 19.0118C91.9793 19.1055 91.8621 19.1876 91.7097 19.2344C91.5457 19.2813 91.3582 19.3047 91.1355 19.3047C90.0222 19.3047 88.991 18.8594 88.0535 17.9688L86.2722 20.4883C87.5965 21.6602 89.2019 22.2344 91.1004 22.2344ZM99.6551 8.86334C100.311 8.86334 100.874 8.66412 101.319 8.25396C101.764 7.84381 101.999 7.31646 101.999 6.67193C101.999 6.03912 101.764 5.52349 101.319 5.11334C100.874 4.70318 100.311 4.49224 99.6551 4.49224C99.2215 4.49224 98.823 4.58599 98.4715 4.77349C98.1199 4.96099 97.8386 5.21881 97.6277 5.54693C97.4168 5.87506 97.3113 6.25006 97.3113 6.67193C97.3113 7.31646 97.534 7.84381 97.9793 8.25396C98.4246 8.66412 98.9871 8.86334 99.6551 8.86334ZM97.7801 22.0001H101.518V10.2579H97.7801V22.0001ZM108.046 22.2344C108.819 22.2344 109.511 22.1407 110.12 21.9532C110.729 21.7657 111.221 21.4961 111.608 21.1563C111.983 20.8165 112.276 20.418 112.475 19.961C112.663 19.504 112.768 19.0001 112.768 18.4376C112.768 18.2032 112.745 17.9922 112.721 17.793C112.698 17.5938 112.651 17.4063 112.593 17.2305C112.522 17.0547 112.464 16.8907 112.393 16.7501C112.323 16.6094 112.218 16.4805 112.1 16.3399C111.971 16.1993 111.854 16.0821 111.737 15.9766C111.62 15.8829 111.468 15.7774 111.28 15.6602C111.093 15.5547 110.928 15.461 110.764 15.379C110.6 15.2969 110.401 15.2032 110.167 15.0977C109.921 15.004 109.698 14.9102 109.499 14.8399C109.3 14.7696 109.053 14.6758 108.761 14.5586C108.21 14.3711 107.811 14.1954 107.577 14.0313C107.343 13.879 107.225 13.7266 107.225 13.5743C107.225 13.3633 107.307 13.211 107.483 13.1172C107.647 13.0235 107.846 12.9766 108.057 12.9766C108.468 12.9766 108.913 13.0821 109.393 13.293C109.862 13.504 110.307 13.8086 110.706 14.2071L112.487 11.5235C112.018 11.1836 111.561 10.9024 111.116 10.6915C110.659 10.4805 110.178 10.3165 109.686 10.1993C109.182 10.0938 108.643 10.0352 108.069 10.0352C107.237 10.0352 106.487 10.1876 105.831 10.4805C105.163 10.7852 104.636 11.2188 104.249 11.7813C103.85 12.3438 103.663 13.0001 103.663 13.7383C103.663 14.0665 103.686 14.3829 103.757 14.6641C103.827 14.9454 103.921 15.2032 104.038 15.4258C104.155 15.6602 104.307 15.8711 104.495 16.0704C104.671 16.2696 104.858 16.4454 105.057 16.586C105.257 16.7383 105.491 16.879 105.749 17.0196C106.007 17.1602 106.253 17.2774 106.511 17.3711C106.757 17.4649 107.026 17.5586 107.331 17.6524C108.022 17.8751 108.491 18.0626 108.749 18.2032C109.007 18.3438 109.136 18.4961 109.136 18.6485C109.136 18.7891 109.089 18.918 109.007 19.0118C108.925 19.1055 108.807 19.1876 108.655 19.2344C108.491 19.2813 108.303 19.3047 108.081 19.3047C106.968 19.3047 105.936 18.8594 104.999 17.9688L103.218 20.4883C104.542 21.6602 106.147 22.2344 108.046 22.2344ZM131.507 22.0001H135.702L129.432 4.94927H125.589L119.343 22.0001H123.538L124.522 18.9532H130.511L131.507 22.0001ZM125.624 15.5547L127.487 9.80084H127.534L129.409 15.5547H125.624ZM144.221 10.2579V16.0704C144.221 16.9844 144.022 17.6876 143.636 18.168C143.237 18.6485 142.745 18.8829 142.159 18.8829C141.514 18.8829 141.057 18.6954 140.776 18.2969C140.495 17.8985 140.366 17.2305 140.366 16.293V10.2579H136.616V17.2188C136.616 20.5586 138.022 22.2227 140.846 22.2227C142.194 22.2227 143.296 21.7071 144.163 20.6758H144.221V22.0001H147.983V10.2579H144.221ZM155.917 22.2344C157.089 22.2344 158.132 22.0352 159.046 21.6368C159.96 21.2383 160.698 20.711 161.237 20.0547L158.671 17.8165C158.038 18.5313 157.241 18.8829 156.28 18.8829C155.882 18.8829 155.518 18.8243 155.19 18.6836C154.862 18.543 154.581 18.3555 154.346 18.1094C154.112 17.8751 153.925 17.5821 153.796 17.2305C153.667 16.8907 153.608 16.5157 153.608 16.1055C153.608 15.3086 153.843 14.6524 154.335 14.1485C154.815 13.6446 155.448 13.3868 156.245 13.3868C157.229 13.3868 158.038 13.7735 158.671 14.5235L161.178 12.379C160.593 11.629 159.854 11.0547 158.952 10.6446C158.038 10.2461 157.089 10.0352 156.104 10.0352C154.886 10.0352 153.807 10.293 152.846 10.8086C151.886 11.3243 151.147 12.0391 150.62 12.9649C150.081 13.9024 149.823 14.9571 149.823 16.1407C149.823 17.336 150.081 18.3907 150.62 19.3165C151.147 20.254 151.874 20.9688 152.8 21.4727C153.714 21.9883 154.757 22.2344 155.917 22.2344ZM166.639 22.2227C167.389 22.2227 167.999 22.1641 168.479 22.0235C168.96 21.8829 169.44 21.6836 169.921 21.4141L168.995 18.6485C168.608 18.8477 168.221 18.9415 167.835 18.9415C167.495 18.9415 167.261 18.8243 167.132 18.5899C167.003 18.3555 166.944 18.0274 166.944 17.6055V13.3165H169.792V10.2579H166.944V6.10943L163.194 6.50787V10.2579H161.87V13.3165H163.194V18.3086C163.194 19.5977 163.499 20.5704 164.132 21.2266C164.753 21.8946 165.585 22.2227 166.639 22.2227ZM173.483 8.86334C174.139 8.86334 174.702 8.66412 175.147 8.25396C175.593 7.84381 175.827 7.31646 175.827 6.67193C175.827 6.03912 175.593 5.52349 175.147 5.11334C174.702 4.70318 174.139 4.49224 173.483 4.49224C173.05 4.49224 172.651 4.58599 172.3 4.77349C171.948 4.96099 171.667 5.21881 171.456 5.54693C171.245 5.87506 171.139 6.25006 171.139 6.67193C171.139 7.31646 171.362 7.84381 171.807 8.25396C172.253 8.66412 172.815 8.86334 173.483 8.86334ZM171.608 22.0001H175.346V10.2579H171.608V22.0001ZM183.725 22.2344C184.944 22.2344 186.046 21.9883 187.007 21.4727C187.968 20.9571 188.706 20.2422 189.245 19.3165C189.784 18.3907 190.053 17.336 190.053 16.1407C190.053 14.9571 189.784 13.9024 189.245 12.9649C188.706 12.0391 187.968 11.3243 187.007 10.8086C186.046 10.293 184.944 10.0352 183.725 10.0352C182.788 10.0352 181.932 10.1876 181.147 10.4922C180.35 10.7969 179.682 11.2188 179.132 11.7579C178.581 12.2969 178.147 12.9415 177.843 13.6915C177.538 14.4415 177.386 15.2618 177.386 16.1407C177.386 17.0313 177.538 17.8516 177.843 18.6016C178.147 19.3516 178.581 19.9961 179.132 20.5352C179.682 21.0743 180.35 21.4844 181.147 21.7891C181.932 22.0938 182.788 22.2344 183.725 22.2344ZM183.725 18.8946C182.987 18.8946 182.378 18.6368 181.897 18.1094C181.405 17.5938 181.171 16.9376 181.171 16.1407C181.171 15.3438 181.405 14.6758 181.886 14.1602C182.354 13.6446 182.975 13.3868 183.725 13.3868C184.452 13.3868 185.061 13.6446 185.542 14.1602C186.022 14.6758 186.268 15.3321 186.268 16.1407C186.268 16.9376 186.022 17.6055 185.53 18.1211C185.038 18.6368 184.44 18.8946 183.725 18.8946ZM199.288 10.0352C198.596 10.0352 197.952 10.1758 197.343 10.4571C196.733 10.7383 196.194 11.1485 195.737 11.6758H195.714V10.2579H191.964V22.0001H195.714V16.1055C195.714 15.5196 195.796 15.0157 195.983 14.5938C196.171 14.1836 196.417 13.879 196.745 13.6797C197.061 13.4922 197.436 13.3868 197.87 13.3868C198.303 13.3868 198.655 13.4688 198.913 13.6094C199.171 13.7501 199.382 14.0079 199.522 14.3829C199.663 14.7579 199.745 15.2501 199.745 15.8829V22.0001H203.495V14.9571C203.495 14.0665 203.389 13.293 203.19 12.6368C202.979 11.9922 202.686 11.4766 202.3 11.1016C201.913 10.7266 201.479 10.4571 200.987 10.293C200.495 10.129 199.921 10.0352 199.288 10.0352Z" fill="white"/>
<path d="M16.9988 3.00005C19.9656 2.9999 22.8659 3.87955 25.3328 5.52776C27.7997 7.17597 29.7224 9.51871 30.8577 12.2597C31.9931 15.0007 32.2902 18.0168 31.7113 20.9266C31.1325 23.8365 29.7038 26.5093 27.6058 28.6071C26.2161 30.0044 24.5631 31.1121 22.7424 31.8662C20.9217 32.6202 18.9695 33.0056 16.9988 33.0001V3.00005ZM14.9988 30.0001C12.0323 29.9998 9.1324 29.12 6.66588 27.4717C4.19936 25.8235 2.27696 23.4809 1.14175 20.7401C0.00653088 17.9994 -0.290517 14.9836 0.288162 12.074C0.86684 9.16447 2.29526 6.49184 4.3928 4.39405C5.78226 2.99669 7.4351 1.88882 9.25563 1.13459C11.0762 0.38035 13.0282 -0.00526866 14.9988 5.43653e-05V30.0001Z" fill="white"/>
</svg>
