<svg width="809" height="595" viewBox="0 0 809 595" fill="none" xmlns="http://www.w3.org/2000/svg">
<rect width="809" height="595" fill="white"/>
<path d="M505.143 212.188C506.432 212.188 507.686 212 508.905 211.613C510.124 211.238 511.132 210.734 511.917 210.113V202.449H504.792V205.836H508.061V207.77C507.124 208.285 506.151 208.531 505.143 208.531C504.44 208.531 503.796 208.402 503.21 208.133C502.624 207.875 502.143 207.512 501.757 207.055C501.37 206.609 501.077 206.07 500.866 205.461C500.655 204.852 500.55 204.207 500.55 203.516C500.55 202.742 500.667 202.039 500.901 201.395C501.135 200.762 501.464 200.223 501.862 199.801C502.26 199.379 502.729 199.063 503.268 198.828C503.807 198.606 504.37 198.488 504.979 198.488C506.526 198.488 507.885 199.051 509.046 200.176L511.882 197.762C511.038 196.789 509.995 196.039 508.753 195.512C507.51 194.984 506.257 194.715 504.991 194.715C503.655 194.715 502.448 194.949 501.358 195.395C500.257 195.852 499.354 196.473 498.628 197.258C497.901 198.055 497.35 198.981 496.952 200.047C496.553 201.125 496.366 202.273 496.366 203.516C496.366 204.606 496.507 205.613 496.8 206.539C497.093 207.477 497.503 208.285 498.042 208.965C498.569 209.656 499.202 210.242 499.928 210.734C500.655 211.227 501.452 211.59 502.343 211.824C503.221 212.07 504.159 212.188 505.143 212.188ZM521.608 200.035C520.917 200.035 520.272 200.176 519.663 200.457C519.053 200.738 518.514 201.148 518.057 201.676H518.034V200.258H514.284V212H518.034V206.106C518.034 205.52 518.116 205.016 518.303 204.594C518.491 204.184 518.737 203.879 519.065 203.68C519.382 203.492 519.757 203.387 520.19 203.387C520.624 203.387 520.975 203.469 521.233 203.609C521.491 203.75 521.702 204.008 521.843 204.383C521.983 204.758 522.065 205.25 522.065 205.883V212H525.815V204.957C525.815 204.066 525.71 203.293 525.51 202.637C525.3 201.992 525.007 201.477 524.62 201.102C524.233 200.727 523.8 200.457 523.307 200.293C522.815 200.129 522.241 200.035 521.608 200.035ZM533.936 212.234C535.155 212.234 536.257 211.988 537.218 211.473C538.178 210.957 538.917 210.242 539.456 209.316C539.995 208.391 540.264 207.336 540.264 206.141C540.264 204.957 539.995 203.902 539.456 202.965C538.917 202.039 538.178 201.324 537.218 200.809C536.257 200.293 535.155 200.035 533.936 200.035C532.999 200.035 532.143 200.188 531.358 200.492C530.561 200.797 529.893 201.219 529.343 201.758C528.792 202.297 528.358 202.941 528.053 203.691C527.749 204.441 527.596 205.262 527.596 206.141C527.596 207.031 527.749 207.852 528.053 208.602C528.358 209.352 528.792 209.996 529.343 210.535C529.893 211.074 530.561 211.484 531.358 211.789C532.143 212.094 532.999 212.234 533.936 212.234ZM533.936 208.895C533.198 208.895 532.589 208.637 532.108 208.109C531.616 207.594 531.382 206.938 531.382 206.141C531.382 205.344 531.616 204.676 532.096 204.16C532.565 203.645 533.186 203.387 533.936 203.387C534.663 203.387 535.272 203.645 535.753 204.16C536.233 204.676 536.479 205.332 536.479 206.141C536.479 206.938 536.233 207.606 535.741 208.121C535.249 208.637 534.651 208.895 533.936 208.895ZM546.1 212.234C546.874 212.234 547.565 212.141 548.175 211.953C548.784 211.766 549.276 211.496 549.663 211.156C550.038 210.816 550.331 210.418 550.53 209.961C550.718 209.504 550.823 209 550.823 208.438C550.823 208.203 550.8 207.992 550.776 207.793C550.753 207.594 550.706 207.406 550.647 207.231C550.577 207.055 550.518 206.891 550.448 206.75C550.378 206.609 550.272 206.481 550.155 206.34C550.026 206.199 549.909 206.082 549.792 205.977C549.675 205.883 549.522 205.777 549.335 205.66C549.147 205.555 548.983 205.461 548.819 205.379C548.655 205.297 548.456 205.203 548.221 205.098C547.975 205.004 547.753 204.91 547.553 204.84C547.354 204.77 547.108 204.676 546.815 204.559C546.264 204.371 545.866 204.195 545.632 204.031C545.397 203.879 545.28 203.727 545.28 203.574C545.28 203.363 545.362 203.211 545.538 203.117C545.702 203.023 545.901 202.977 546.112 202.977C546.522 202.977 546.968 203.082 547.448 203.293C547.917 203.504 548.362 203.809 548.76 204.207L550.542 201.523C550.073 201.184 549.616 200.902 549.171 200.691C548.714 200.481 548.233 200.316 547.741 200.199C547.237 200.094 546.698 200.035 546.124 200.035C545.292 200.035 544.542 200.188 543.885 200.481C543.218 200.785 542.69 201.219 542.303 201.781C541.905 202.344 541.718 203 541.718 203.738C541.718 204.066 541.741 204.383 541.811 204.664C541.882 204.945 541.975 205.203 542.093 205.426C542.21 205.66 542.362 205.871 542.55 206.07C542.725 206.27 542.913 206.445 543.112 206.586C543.311 206.738 543.546 206.879 543.803 207.02C544.061 207.16 544.307 207.277 544.565 207.371C544.811 207.465 545.081 207.559 545.385 207.652C546.077 207.875 546.546 208.063 546.803 208.203C547.061 208.344 547.19 208.496 547.19 208.648C547.19 208.789 547.143 208.918 547.061 209.012C546.979 209.106 546.862 209.188 546.71 209.234C546.546 209.281 546.358 209.305 546.135 209.305C545.022 209.305 543.991 208.859 543.053 207.969L541.272 210.488C542.596 211.66 544.202 212.234 546.1 212.234ZM554.655 198.863C555.311 198.863 555.874 198.664 556.319 198.254C556.764 197.844 556.999 197.316 556.999 196.672C556.999 196.039 556.764 195.523 556.319 195.113C555.874 194.703 555.311 194.492 554.655 194.492C554.221 194.492 553.823 194.586 553.471 194.773C553.12 194.961 552.839 195.219 552.628 195.547C552.417 195.875 552.311 196.25 552.311 196.672C552.311 197.316 552.534 197.844 552.979 198.254C553.425 198.664 553.987 198.863 554.655 198.863ZM552.78 212H556.518V200.258H552.78V212ZM563.046 212.234C563.819 212.234 564.51 212.141 565.12 211.953C565.729 211.766 566.221 211.496 566.608 211.156C566.983 210.816 567.276 210.418 567.475 209.961C567.663 209.504 567.768 209 567.768 208.438C567.768 208.203 567.745 207.992 567.721 207.793C567.698 207.594 567.651 207.406 567.593 207.231C567.522 207.055 567.464 206.891 567.393 206.75C567.323 206.609 567.218 206.481 567.1 206.34C566.971 206.199 566.854 206.082 566.737 205.977C566.62 205.883 566.468 205.777 566.28 205.66C566.093 205.555 565.928 205.461 565.764 205.379C565.6 205.297 565.401 205.203 565.167 205.098C564.921 205.004 564.698 204.91 564.499 204.84C564.3 204.77 564.053 204.676 563.76 204.559C563.21 204.371 562.811 204.195 562.577 204.031C562.343 203.879 562.225 203.727 562.225 203.574C562.225 203.363 562.307 203.211 562.483 203.117C562.647 203.023 562.846 202.977 563.057 202.977C563.468 202.977 563.913 203.082 564.393 203.293C564.862 203.504 565.307 203.809 565.706 204.207L567.487 201.523C567.018 201.184 566.561 200.902 566.116 200.691C565.659 200.481 565.178 200.316 564.686 200.199C564.182 200.094 563.643 200.035 563.069 200.035C562.237 200.035 561.487 200.188 560.831 200.481C560.163 200.785 559.635 201.219 559.249 201.781C558.85 202.344 558.663 203 558.663 203.738C558.663 204.066 558.686 204.383 558.757 204.664C558.827 204.945 558.921 205.203 559.038 205.426C559.155 205.66 559.307 205.871 559.495 206.07C559.671 206.27 559.858 206.445 560.057 206.586C560.257 206.738 560.491 206.879 560.749 207.02C561.007 207.16 561.253 207.277 561.51 207.371C561.757 207.465 562.026 207.559 562.331 207.652C563.022 207.875 563.491 208.063 563.749 208.203C564.007 208.344 564.135 208.496 564.135 208.648C564.135 208.789 564.089 208.918 564.007 209.012C563.925 209.106 563.807 209.188 563.655 209.234C563.491 209.281 563.303 209.305 563.081 209.305C561.968 209.305 560.936 208.859 559.999 207.969L558.218 210.488C559.542 211.66 561.147 212.234 563.046 212.234ZM586.507 212H590.702L584.432 194.949H580.589L574.343 212H578.538L579.522 208.953H585.51L586.507 212ZM580.624 205.555L582.487 199.801H582.534L584.409 205.555H580.624ZM599.221 200.258V206.07C599.221 206.984 599.022 207.688 598.635 208.168C598.237 208.648 597.745 208.883 597.159 208.883C596.514 208.883 596.057 208.695 595.776 208.297C595.495 207.898 595.366 207.231 595.366 206.293V200.258H591.616V207.219C591.616 210.559 593.022 212.223 595.846 212.223C597.194 212.223 598.296 211.707 599.163 210.676H599.221V212H602.983V200.258H599.221ZM610.917 212.234C612.089 212.234 613.132 212.035 614.046 211.637C614.96 211.238 615.698 210.711 616.237 210.055L613.671 207.816C613.038 208.531 612.241 208.883 611.28 208.883C610.882 208.883 610.518 208.824 610.19 208.684C609.862 208.543 609.581 208.356 609.346 208.109C609.112 207.875 608.925 207.582 608.796 207.231C608.667 206.891 608.608 206.516 608.608 206.106C608.608 205.309 608.843 204.652 609.335 204.148C609.815 203.645 610.448 203.387 611.245 203.387C612.229 203.387 613.038 203.773 613.671 204.523L616.178 202.379C615.593 201.629 614.854 201.055 613.952 200.645C613.038 200.246 612.089 200.035 611.104 200.035C609.885 200.035 608.807 200.293 607.846 200.809C606.885 201.324 606.147 202.039 605.62 202.965C605.081 203.902 604.823 204.957 604.823 206.141C604.823 207.336 605.081 208.391 605.62 209.316C606.147 210.254 606.874 210.969 607.8 211.473C608.714 211.988 609.757 212.234 610.917 212.234ZM621.639 212.223C622.389 212.223 622.999 212.164 623.479 212.023C623.96 211.883 624.44 211.684 624.921 211.414L623.995 208.648C623.608 208.848 623.221 208.941 622.835 208.941C622.495 208.941 622.26 208.824 622.132 208.59C622.003 208.356 621.944 208.027 621.944 207.606V203.316H624.792V200.258H621.944V196.109L618.194 196.508V200.258H616.87V203.316H618.194V208.309C618.194 209.598 618.499 210.57 619.132 211.227C619.753 211.895 620.585 212.223 621.639 212.223ZM628.483 198.863C629.139 198.863 629.702 198.664 630.147 198.254C630.593 197.844 630.827 197.316 630.827 196.672C630.827 196.039 630.593 195.523 630.147 195.113C629.702 194.703 629.139 194.492 628.483 194.492C628.05 194.492 627.651 194.586 627.3 194.773C626.948 194.961 626.667 195.219 626.456 195.547C626.245 195.875 626.139 196.25 626.139 196.672C626.139 197.316 626.362 197.844 626.807 198.254C627.253 198.664 627.815 198.863 628.483 198.863ZM626.608 212H630.346V200.258H626.608V212ZM638.725 212.234C639.944 212.234 641.046 211.988 642.007 211.473C642.968 210.957 643.706 210.242 644.245 209.316C644.784 208.391 645.053 207.336 645.053 206.141C645.053 204.957 644.784 203.902 644.245 202.965C643.706 202.039 642.968 201.324 642.007 200.809C641.046 200.293 639.944 200.035 638.725 200.035C637.788 200.035 636.932 200.188 636.147 200.492C635.35 200.797 634.682 201.219 634.132 201.758C633.581 202.297 633.147 202.941 632.843 203.691C632.538 204.441 632.385 205.262 632.385 206.141C632.385 207.031 632.538 207.852 632.843 208.602C633.147 209.352 633.581 209.996 634.132 210.535C634.682 211.074 635.35 211.484 636.147 211.789C636.932 212.094 637.788 212.234 638.725 212.234ZM638.725 208.895C637.987 208.895 637.378 208.637 636.897 208.109C636.405 207.594 636.171 206.938 636.171 206.141C636.171 205.344 636.405 204.676 636.885 204.16C637.354 203.645 637.975 203.387 638.725 203.387C639.452 203.387 640.061 203.645 640.542 204.16C641.022 204.676 641.268 205.332 641.268 206.141C641.268 206.938 641.022 207.606 640.53 208.121C640.038 208.637 639.44 208.895 638.725 208.895ZM654.288 200.035C653.596 200.035 652.952 200.176 652.343 200.457C651.733 200.738 651.194 201.148 650.737 201.676H650.714V200.258H646.964V212H650.714V206.106C650.714 205.52 650.796 205.016 650.983 204.594C651.171 204.184 651.417 203.879 651.745 203.68C652.061 203.492 652.436 203.387 652.87 203.387C653.303 203.387 653.655 203.469 653.913 203.609C654.171 203.75 654.382 204.008 654.522 204.383C654.663 204.758 654.745 205.25 654.745 205.883V212H658.495V204.957C658.495 204.066 658.389 203.293 658.19 202.637C657.979 201.992 657.686 201.477 657.3 201.102C656.913 200.727 656.479 200.457 655.987 200.293C655.495 200.129 654.921 200.035 654.288 200.035Z" fill="#E8663D"/>
<path d="M471.999 193C474.966 193 477.866 193.88 480.333 195.528C482.8 197.176 484.722 199.519 485.858 202.26C486.993 205.001 487.29 208.017 486.711 210.927C486.132 213.836 484.704 216.509 482.606 218.607C481.216 220.004 479.563 221.112 477.742 221.866C475.922 222.62 473.969 223.006 471.999 223V193ZM469.999 220C467.032 220 464.132 219.12 461.666 217.472C459.199 215.823 457.277 213.481 456.142 210.74C455.007 207.999 454.709 204.984 455.288 202.074C455.867 199.164 457.295 196.492 459.393 194.394C460.782 192.997 462.435 191.889 464.256 191.135C466.076 190.38 468.028 189.995 469.999 190V220Z" fill="#E8663D"/>
<path d="M200.143 212.188C201.432 212.188 202.686 212 203.905 211.613C205.124 211.238 206.132 210.734 206.917 210.113V202.449H199.792V205.836H203.061V207.77C202.124 208.285 201.151 208.531 200.143 208.531C199.44 208.531 198.796 208.402 198.21 208.133C197.624 207.875 197.143 207.512 196.757 207.055C196.37 206.609 196.077 206.07 195.866 205.461C195.655 204.852 195.55 204.207 195.55 203.516C195.55 202.742 195.667 202.039 195.901 201.395C196.135 200.762 196.464 200.223 196.862 199.801C197.26 199.379 197.729 199.063 198.268 198.828C198.807 198.606 199.37 198.488 199.979 198.488C201.526 198.488 202.885 199.051 204.046 200.176L206.882 197.762C206.038 196.789 204.995 196.039 203.753 195.512C202.51 194.984 201.257 194.715 199.991 194.715C198.655 194.715 197.448 194.949 196.358 195.395C195.257 195.852 194.354 196.473 193.628 197.258C192.901 198.055 192.35 198.981 191.952 200.047C191.553 201.125 191.366 202.273 191.366 203.516C191.366 204.606 191.507 205.613 191.8 206.539C192.093 207.477 192.503 208.285 193.042 208.965C193.569 209.656 194.202 210.242 194.928 210.734C195.655 211.227 196.452 211.59 197.343 211.824C198.221 212.07 199.159 212.188 200.143 212.188ZM216.608 200.035C215.917 200.035 215.272 200.176 214.663 200.457C214.053 200.738 213.514 201.148 213.057 201.676H213.034V200.258H209.284V212H213.034V206.106C213.034 205.52 213.116 205.016 213.303 204.594C213.491 204.184 213.737 203.879 214.065 203.68C214.382 203.492 214.757 203.387 215.19 203.387C215.624 203.387 215.975 203.469 216.233 203.609C216.491 203.75 216.702 204.008 216.843 204.383C216.983 204.758 217.065 205.25 217.065 205.883V212H220.815V204.957C220.815 204.066 220.71 203.293 220.51 202.637C220.3 201.992 220.007 201.477 219.62 201.102C219.233 200.727 218.8 200.457 218.307 200.293C217.815 200.129 217.241 200.035 216.608 200.035ZM228.936 212.234C230.155 212.234 231.257 211.988 232.218 211.473C233.178 210.957 233.917 210.242 234.456 209.316C234.995 208.391 235.264 207.336 235.264 206.141C235.264 204.957 234.995 203.902 234.456 202.965C233.917 202.039 233.178 201.324 232.218 200.809C231.257 200.293 230.155 200.035 228.936 200.035C227.999 200.035 227.143 200.188 226.358 200.492C225.561 200.797 224.893 201.219 224.343 201.758C223.792 202.297 223.358 202.941 223.053 203.691C222.749 204.441 222.596 205.262 222.596 206.141C222.596 207.031 222.749 207.852 223.053 208.602C223.358 209.352 223.792 209.996 224.343 210.535C224.893 211.074 225.561 211.484 226.358 211.789C227.143 212.094 227.999 212.234 228.936 212.234ZM228.936 208.895C228.198 208.895 227.589 208.637 227.108 208.109C226.616 207.594 226.382 206.938 226.382 206.141C226.382 205.344 226.616 204.676 227.096 204.16C227.565 203.645 228.186 203.387 228.936 203.387C229.663 203.387 230.272 203.645 230.753 204.16C231.233 204.676 231.479 205.332 231.479 206.141C231.479 206.938 231.233 207.606 230.741 208.121C230.249 208.637 229.651 208.895 228.936 208.895ZM241.1 212.234C241.874 212.234 242.565 212.141 243.175 211.953C243.784 211.766 244.276 211.496 244.663 211.156C245.038 210.816 245.331 210.418 245.53 209.961C245.718 209.504 245.823 209 245.823 208.438C245.823 208.203 245.8 207.992 245.776 207.793C245.753 207.594 245.706 207.406 245.647 207.231C245.577 207.055 245.518 206.891 245.448 206.75C245.378 206.609 245.272 206.481 245.155 206.34C245.026 206.199 244.909 206.082 244.792 205.977C244.675 205.883 244.522 205.777 244.335 205.66C244.147 205.555 243.983 205.461 243.819 205.379C243.655 205.297 243.456 205.203 243.221 205.098C242.975 205.004 242.753 204.91 242.553 204.84C242.354 204.77 242.108 204.676 241.815 204.559C241.264 204.371 240.866 204.195 240.632 204.031C240.397 203.879 240.28 203.727 240.28 203.574C240.28 203.363 240.362 203.211 240.538 203.117C240.702 203.023 240.901 202.977 241.112 202.977C241.522 202.977 241.968 203.082 242.448 203.293C242.917 203.504 243.362 203.809 243.76 204.207L245.542 201.523C245.073 201.184 244.616 200.902 244.171 200.691C243.714 200.481 243.233 200.316 242.741 200.199C242.237 200.094 241.698 200.035 241.124 200.035C240.292 200.035 239.542 200.188 238.885 200.481C238.218 200.785 237.69 201.219 237.303 201.781C236.905 202.344 236.718 203 236.718 203.738C236.718 204.066 236.741 204.383 236.811 204.664C236.882 204.945 236.975 205.203 237.093 205.426C237.21 205.66 237.362 205.871 237.55 206.07C237.725 206.27 237.913 206.445 238.112 206.586C238.311 206.738 238.546 206.879 238.803 207.02C239.061 207.16 239.307 207.277 239.565 207.371C239.811 207.465 240.081 207.559 240.385 207.652C241.077 207.875 241.546 208.063 241.803 208.203C242.061 208.344 242.19 208.496 242.19 208.648C242.19 208.789 242.143 208.918 242.061 209.012C241.979 209.106 241.862 209.188 241.71 209.234C241.546 209.281 241.358 209.305 241.135 209.305C240.022 209.305 238.991 208.859 238.053 207.969L236.272 210.488C237.596 211.66 239.202 212.234 241.1 212.234ZM249.655 198.863C250.311 198.863 250.874 198.664 251.319 198.254C251.764 197.844 251.999 197.316 251.999 196.672C251.999 196.039 251.764 195.523 251.319 195.113C250.874 194.703 250.311 194.492 249.655 194.492C249.221 194.492 248.823 194.586 248.471 194.773C248.12 194.961 247.839 195.219 247.628 195.547C247.417 195.875 247.311 196.25 247.311 196.672C247.311 197.316 247.534 197.844 247.979 198.254C248.425 198.664 248.987 198.863 249.655 198.863ZM247.78 212H251.518V200.258H247.78V212ZM258.046 212.234C258.819 212.234 259.51 212.141 260.12 211.953C260.729 211.766 261.221 211.496 261.608 211.156C261.983 210.816 262.276 210.418 262.475 209.961C262.663 209.504 262.768 209 262.768 208.438C262.768 208.203 262.745 207.992 262.721 207.793C262.698 207.594 262.651 207.406 262.593 207.231C262.522 207.055 262.464 206.891 262.393 206.75C262.323 206.609 262.218 206.481 262.1 206.34C261.971 206.199 261.854 206.082 261.737 205.977C261.62 205.883 261.468 205.777 261.28 205.66C261.093 205.555 260.928 205.461 260.764 205.379C260.6 205.297 260.401 205.203 260.167 205.098C259.921 205.004 259.698 204.91 259.499 204.84C259.3 204.77 259.053 204.676 258.76 204.559C258.21 204.371 257.811 204.195 257.577 204.031C257.343 203.879 257.225 203.727 257.225 203.574C257.225 203.363 257.307 203.211 257.483 203.117C257.647 203.023 257.846 202.977 258.057 202.977C258.468 202.977 258.913 203.082 259.393 203.293C259.862 203.504 260.307 203.809 260.706 204.207L262.487 201.523C262.018 201.184 261.561 200.902 261.116 200.691C260.659 200.481 260.178 200.316 259.686 200.199C259.182 200.094 258.643 200.035 258.069 200.035C257.237 200.035 256.487 200.188 255.831 200.481C255.163 200.785 254.635 201.219 254.249 201.781C253.85 202.344 253.663 203 253.663 203.738C253.663 204.066 253.686 204.383 253.757 204.664C253.827 204.945 253.921 205.203 254.038 205.426C254.155 205.66 254.307 205.871 254.495 206.07C254.671 206.27 254.858 206.445 255.057 206.586C255.257 206.738 255.491 206.879 255.749 207.02C256.007 207.16 256.253 207.277 256.51 207.371C256.757 207.465 257.026 207.559 257.331 207.652C258.022 207.875 258.491 208.063 258.749 208.203C259.007 208.344 259.135 208.496 259.135 208.648C259.135 208.789 259.089 208.918 259.007 209.012C258.925 209.106 258.807 209.188 258.655 209.234C258.491 209.281 258.303 209.305 258.081 209.305C256.968 209.305 255.936 208.859 254.999 207.969L253.218 210.488C254.542 211.66 256.147 212.234 258.046 212.234ZM281.507 212H285.702L279.432 194.949H275.589L269.343 212H273.538L274.522 208.953H280.51L281.507 212ZM275.624 205.555L277.487 199.801H277.534L279.409 205.555H275.624ZM294.221 200.258V206.07C294.221 206.984 294.022 207.688 293.635 208.168C293.237 208.648 292.745 208.883 292.159 208.883C291.514 208.883 291.057 208.695 290.776 208.297C290.495 207.898 290.366 207.231 290.366 206.293V200.258H286.616V207.219C286.616 210.559 288.022 212.223 290.846 212.223C292.194 212.223 293.296 211.707 294.163 210.676H294.221V212H297.983V200.258H294.221ZM305.917 212.234C307.089 212.234 308.132 212.035 309.046 211.637C309.96 211.238 310.698 210.711 311.237 210.055L308.671 207.816C308.038 208.531 307.241 208.883 306.28 208.883C305.882 208.883 305.518 208.824 305.19 208.684C304.862 208.543 304.581 208.356 304.346 208.109C304.112 207.875 303.925 207.582 303.796 207.231C303.667 206.891 303.608 206.516 303.608 206.106C303.608 205.309 303.843 204.652 304.335 204.148C304.815 203.645 305.448 203.387 306.245 203.387C307.229 203.387 308.038 203.773 308.671 204.523L311.178 202.379C310.593 201.629 309.854 201.055 308.952 200.645C308.038 200.246 307.089 200.035 306.104 200.035C304.885 200.035 303.807 200.293 302.846 200.809C301.885 201.324 301.147 202.039 300.62 202.965C300.081 203.902 299.823 204.957 299.823 206.141C299.823 207.336 300.081 208.391 300.62 209.316C301.147 210.254 301.874 210.969 302.8 211.473C303.714 211.988 304.757 212.234 305.917 212.234ZM316.639 212.223C317.389 212.223 317.999 212.164 318.479 212.023C318.96 211.883 319.44 211.684 319.921 211.414L318.995 208.648C318.608 208.848 318.221 208.941 317.835 208.941C317.495 208.941 317.26 208.824 317.132 208.59C317.003 208.356 316.944 208.027 316.944 207.606V203.316H319.792V200.258H316.944V196.109L313.194 196.508V200.258H311.87V203.316H313.194V208.309C313.194 209.598 313.499 210.57 314.132 211.227C314.753 211.895 315.585 212.223 316.639 212.223ZM323.483 198.863C324.139 198.863 324.702 198.664 325.147 198.254C325.593 197.844 325.827 197.316 325.827 196.672C325.827 196.039 325.593 195.523 325.147 195.113C324.702 194.703 324.139 194.492 323.483 194.492C323.05 194.492 322.651 194.586 322.3 194.773C321.948 194.961 321.667 195.219 321.456 195.547C321.245 195.875 321.139 196.25 321.139 196.672C321.139 197.316 321.362 197.844 321.807 198.254C322.253 198.664 322.815 198.863 323.483 198.863ZM321.608 212H325.346V200.258H321.608V212ZM333.725 212.234C334.944 212.234 336.046 211.988 337.007 211.473C337.968 210.957 338.706 210.242 339.245 209.316C339.784 208.391 340.053 207.336 340.053 206.141C340.053 204.957 339.784 203.902 339.245 202.965C338.706 202.039 337.968 201.324 337.007 200.809C336.046 200.293 334.944 200.035 333.725 200.035C332.788 200.035 331.932 200.188 331.147 200.492C330.35 200.797 329.682 201.219 329.132 201.758C328.581 202.297 328.147 202.941 327.843 203.691C327.538 204.441 327.385 205.262 327.385 206.141C327.385 207.031 327.538 207.852 327.843 208.602C328.147 209.352 328.581 209.996 329.132 210.535C329.682 211.074 330.35 211.484 331.147 211.789C331.932 212.094 332.788 212.234 333.725 212.234ZM333.725 208.895C332.987 208.895 332.378 208.637 331.897 208.109C331.405 207.594 331.171 206.938 331.171 206.141C331.171 205.344 331.405 204.676 331.885 204.16C332.354 203.645 332.975 203.387 333.725 203.387C334.452 203.387 335.061 203.645 335.542 204.16C336.022 204.676 336.268 205.332 336.268 206.141C336.268 206.938 336.022 207.606 335.53 208.121C335.038 208.637 334.44 208.895 333.725 208.895ZM349.288 200.035C348.596 200.035 347.952 200.176 347.343 200.457C346.733 200.738 346.194 201.148 345.737 201.676H345.714V200.258H341.964V212H345.714V206.106C345.714 205.52 345.796 205.016 345.983 204.594C346.171 204.184 346.417 203.879 346.745 203.68C347.061 203.492 347.436 203.387 347.87 203.387C348.303 203.387 348.655 203.469 348.913 203.609C349.171 203.75 349.382 204.008 349.522 204.383C349.663 204.758 349.745 205.25 349.745 205.883V212H353.495V204.957C353.495 204.066 353.389 203.293 353.19 202.637C352.979 201.992 352.686 201.477 352.3 201.102C351.913 200.727 351.479 200.457 350.987 200.293C350.495 200.129 349.921 200.035 349.288 200.035Z" fill="#001429"/>
<path d="M166.999 193C169.966 193 172.866 193.88 175.333 195.528C177.8 197.176 179.722 199.519 180.858 202.26C181.993 205.001 182.29 208.017 181.711 210.927C181.132 213.836 179.704 216.509 177.606 218.607C176.216 220.004 174.563 221.112 172.742 221.866C170.922 222.62 168.969 223.006 166.999 223V193ZM164.999 220C162.032 220 159.132 219.12 156.666 217.472C154.199 215.823 152.277 213.481 151.142 210.74C150.007 207.999 149.709 204.984 150.288 202.074C150.867 199.164 152.295 196.492 154.393 194.394C155.782 192.997 157.435 191.889 159.256 191.135C161.076 190.38 163.028 189.995 164.999 190V220Z" fill="#001429"/>
<path d="M342.151 464H344.113V455.817H346.868V454.054H339.41V455.817H342.151V464ZM352.142 457.048C351.698 457.048 351.288 457.13 350.905 457.287C350.522 457.451 350.194 457.684 349.921 457.991H349.893V453.691H348.061V464H349.893V460.534C349.893 459.933 350.03 459.481 350.317 459.167C350.597 458.853 350.987 458.695 351.493 458.695C351.944 458.695 352.279 458.825 352.498 459.071C352.716 459.324 352.826 459.755 352.826 460.356V464.007H354.665V459.892C354.665 459.386 354.603 458.941 354.48 458.572C354.357 458.203 354.179 457.902 353.954 457.684C353.721 457.465 353.462 457.308 353.161 457.205C352.86 457.103 352.525 457.048 352.142 457.048ZM362.646 460.521C362.646 459.857 362.502 459.263 362.229 458.736C361.949 458.21 361.552 457.8 361.046 457.499C360.533 457.198 359.946 457.048 359.289 457.048C358.811 457.048 358.36 457.137 357.943 457.308C357.519 457.485 357.163 457.725 356.863 458.032C356.562 458.34 356.329 458.716 356.158 459.153C355.981 459.591 355.899 460.069 355.899 460.575C355.899 461.272 356.049 461.895 356.357 462.435C356.664 462.981 357.088 463.398 357.621 463.686C358.155 463.973 358.749 464.116 359.419 464.116C360.075 464.116 360.65 464 361.156 463.768C361.655 463.535 362.058 463.221 362.372 462.824L361.183 461.717C360.752 462.236 360.205 462.496 359.549 462.489C359.112 462.489 358.736 462.366 358.428 462.134C358.12 461.901 357.915 461.587 357.806 461.177H362.598C362.625 461.067 362.646 460.849 362.646 460.521ZM359.351 458.661C359.734 458.661 360.055 458.771 360.308 458.982C360.554 459.194 360.732 459.488 360.827 459.857H357.813C357.915 459.475 358.1 459.174 358.373 458.969C358.647 458.764 358.968 458.661 359.351 458.661ZM367.773 464H369.605V458.682H371.129V457.164H369.605V456.125C369.605 455.51 369.831 455.202 370.295 455.202C370.569 455.202 370.911 455.305 371.321 455.503L371.69 454.067C371.499 453.944 371.246 453.828 370.938 453.726C370.63 453.63 370.289 453.575 369.919 453.575C369.468 453.575 369.079 453.671 368.764 453.849C368.443 454.026 368.197 454.3 368.026 454.662C367.855 455.024 367.773 455.469 367.773 455.988V457.164H367.048V458.682H367.773V464ZM376.944 457.164V457.937H376.916C376.404 457.349 375.734 457.048 374.9 457.048C374.448 457.048 374.018 457.137 373.621 457.314C373.225 457.492 372.883 457.738 372.596 458.046C372.309 458.36 372.09 458.736 371.926 459.174C371.762 459.618 371.68 460.097 371.68 460.603C371.68 461.122 371.762 461.607 371.926 462.045C372.09 462.482 372.316 462.858 372.603 463.159C372.89 463.46 373.238 463.699 373.642 463.863C374.045 464.034 374.483 464.116 374.954 464.116C375.829 464.116 376.506 463.802 376.998 463.173H377.032V464H378.776V457.164H376.944ZM375.289 462.476C374.77 462.476 374.353 462.305 374.025 461.956C373.696 461.614 373.539 461.163 373.539 460.609C373.539 460.035 373.703 459.577 374.038 459.222C374.373 458.873 374.79 458.695 375.296 458.695C375.788 458.695 376.198 458.88 376.527 459.242C376.855 459.611 377.019 460.062 377.019 460.609C377.019 461.163 376.848 461.614 376.52 461.956C376.185 462.305 375.775 462.476 375.289 462.476ZM381.431 456.2C381.739 456.2 382.006 456.091 382.231 455.872C382.45 455.653 382.566 455.394 382.566 455.079C382.566 454.778 382.45 454.512 382.231 454.293C382.006 454.074 381.739 453.965 381.431 453.965C381.117 453.965 380.844 454.074 380.625 454.293C380.406 454.512 380.297 454.778 380.297 455.079C380.297 455.284 380.345 455.476 380.447 455.646C380.543 455.817 380.68 455.954 380.857 456.05C381.035 456.152 381.226 456.2 381.431 456.2ZM380.515 464H382.347V457.164H380.515V464ZM388.066 457.048C387.656 457.048 387.28 457.15 386.924 457.342C386.569 457.533 386.261 457.813 386.001 458.169H385.981V457.164H384.149V464H385.981V460.828C385.981 460.309 386.131 459.878 386.439 459.543C386.747 459.215 387.177 459.044 387.724 459.044C387.861 459.044 388.025 459.051 388.209 459.064V457.055C388.182 457.055 388.134 457.048 388.066 457.048ZM395.452 460.521C395.452 459.857 395.309 459.263 395.035 458.736C394.755 458.21 394.359 457.8 393.853 457.499C393.34 457.198 392.752 457.048 392.096 457.048C391.617 457.048 391.166 457.137 390.749 457.308C390.325 457.485 389.97 457.725 389.669 458.032C389.368 458.34 389.136 458.716 388.965 459.153C388.787 459.591 388.705 460.069 388.705 460.575C388.705 461.272 388.856 461.895 389.163 462.435C389.471 462.981 389.895 463.398 390.428 463.686C390.961 463.973 391.556 464.116 392.226 464.116C392.882 464.116 393.456 464 393.962 463.768C394.461 463.535 394.864 463.221 395.179 462.824L393.989 461.717C393.559 462.236 393.012 462.496 392.356 462.489C391.918 462.489 391.542 462.366 391.234 462.134C390.927 461.901 390.722 461.587 390.612 461.177H395.404C395.432 461.067 395.452 460.849 395.452 460.521ZM392.157 458.661C392.54 458.661 392.861 458.771 393.114 458.982C393.36 459.194 393.538 459.488 393.634 459.857H390.619C390.722 459.475 390.906 459.174 391.18 458.969C391.453 458.764 391.775 458.661 392.157 458.661ZM398.983 464.116C399.844 464.116 400.501 463.925 400.952 463.528C401.403 463.139 401.636 462.626 401.636 461.99C401.636 461.826 401.622 461.669 401.594 461.532C401.506 461.081 401.239 460.712 400.802 460.438C400.542 460.274 400.036 460.056 399.284 459.775C398.922 459.639 398.662 459.516 398.498 459.406C398.334 459.297 398.259 459.174 398.259 459.037C398.259 458.873 398.327 458.75 398.464 458.661C398.6 458.572 398.751 458.524 398.928 458.524C399.188 458.524 399.462 458.586 399.749 458.709C400.036 458.832 400.303 459.01 400.562 459.249L401.451 457.909C401.061 457.608 400.665 457.39 400.268 457.253C399.865 457.116 399.428 457.048 398.949 457.048C398.484 457.048 398.06 457.137 397.691 457.301C397.322 457.472 397.028 457.711 396.809 458.025C396.591 458.34 396.488 458.695 396.488 459.099C396.488 459.317 396.509 459.516 396.563 459.693C396.611 459.878 396.686 460.042 396.782 460.179C396.878 460.322 396.987 460.452 397.11 460.562C397.233 460.678 397.377 460.78 397.548 460.876C397.712 460.972 397.876 461.047 398.04 461.115C398.204 461.184 398.388 461.252 398.594 461.32C398.915 461.43 399.154 461.512 399.318 461.58C399.482 461.648 399.605 461.724 399.701 461.806C399.79 461.888 399.838 461.977 399.838 462.079C399.838 462.25 399.762 462.387 399.612 462.489C399.462 462.599 399.257 462.646 398.997 462.646C398.3 462.646 397.671 462.38 397.103 461.847L396.215 463.111C396.973 463.781 397.896 464.116 398.983 464.116ZM405.037 464.116C405.454 464.116 405.795 464.082 406.062 464.007C406.322 463.938 406.588 463.829 406.848 463.686L406.376 462.223C406.062 462.387 405.775 462.462 405.515 462.462C405.296 462.462 405.146 462.394 405.05 462.25C404.954 462.113 404.913 461.888 404.913 461.587V458.682H406.773V457.164H404.913V454.73L403.081 454.929V457.164H402.275V458.682H403.081V461.84C403.081 462.592 403.252 463.159 403.601 463.542C403.95 463.925 404.428 464.116 405.037 464.116ZM419.864 457.048C419.372 457.048 418.921 457.144 418.51 457.335C418.1 457.526 417.758 457.793 417.485 458.148H417.465C417.061 457.417 416.384 457.048 415.434 457.048C415.051 457.048 414.682 457.137 414.327 457.314C413.971 457.492 413.657 457.738 413.39 458.066H413.37V457.164H411.538V464H413.37V460.582C413.37 460.186 413.431 459.844 413.561 459.557C413.684 459.27 413.855 459.051 414.074 458.907C414.286 458.771 414.532 458.695 414.812 458.695C415.619 458.695 416.022 459.29 416.022 460.473V464.007H417.854V460.582C417.854 460.186 417.916 459.844 418.039 459.557C418.162 459.27 418.333 459.051 418.545 458.907C418.75 458.771 418.989 458.695 419.249 458.695C420.042 458.695 420.445 459.29 420.445 460.473V464.007H422.277V460.028C422.277 459.017 422.065 458.271 421.641 457.779C421.217 457.294 420.63 457.048 419.864 457.048ZM430.272 460.521C430.272 459.857 430.128 459.263 429.855 458.736C429.575 458.21 429.178 457.8 428.672 457.499C428.159 457.198 427.572 457.048 426.915 457.048C426.437 457.048 425.986 457.137 425.569 457.308C425.145 457.485 424.789 457.725 424.489 458.032C424.188 458.34 423.955 458.716 423.784 459.153C423.607 459.591 423.525 460.069 423.525 460.575C423.525 461.272 423.675 461.895 423.983 462.435C424.29 462.981 424.714 463.398 425.247 463.686C425.781 463.973 426.375 464.116 427.045 464.116C427.701 464.116 428.276 464 428.782 463.768C429.281 463.535 429.684 463.221 429.998 462.824L428.809 461.717C428.378 462.236 427.831 462.496 427.175 462.489C426.738 462.489 426.362 462.366 426.054 462.134C425.746 461.901 425.541 461.587 425.432 461.177H430.224C430.251 461.067 430.272 460.849 430.272 460.521ZM426.977 458.661C427.36 458.661 427.681 458.771 427.934 458.982C428.18 459.194 428.358 459.488 428.453 459.857H425.439C425.541 459.475 425.726 459.174 425.999 458.969C426.273 458.764 426.594 458.661 426.977 458.661ZM434.732 464.116C435.389 464.116 435.977 464.007 436.496 463.774C437.016 463.549 437.439 463.255 437.754 462.886L436.496 461.778C436.318 461.983 436.093 462.147 435.819 462.277C435.546 462.407 435.245 462.469 434.91 462.469C434.363 462.469 433.926 462.298 433.584 461.942C433.242 461.594 433.078 461.136 433.078 460.575C433.078 460.302 433.119 460.049 433.208 459.816C433.29 459.584 433.413 459.386 433.57 459.222C433.728 459.058 433.919 458.935 434.151 458.839C434.377 458.743 434.623 458.695 434.896 458.695C435.539 458.695 436.065 458.941 436.489 459.427L437.727 458.36C437.385 457.937 436.961 457.615 436.441 457.39C435.922 457.164 435.382 457.048 434.821 457.048C434.124 457.048 433.502 457.198 432.955 457.492C432.408 457.793 431.978 458.21 431.677 458.743C431.369 459.283 431.219 459.898 431.219 460.589C431.219 461.279 431.369 461.895 431.67 462.428C431.971 462.968 432.394 463.385 432.928 463.679C433.461 463.973 434.062 464.116 434.732 464.116ZM442.973 457.048C442.529 457.048 442.119 457.13 441.736 457.287C441.353 457.451 441.025 457.684 440.752 457.991H440.724V453.691H438.892V464H440.724V460.534C440.724 459.933 440.861 459.481 441.148 459.167C441.428 458.853 441.818 458.695 442.324 458.695C442.775 458.695 443.11 458.825 443.329 459.071C443.547 459.324 443.657 459.755 443.657 460.356V464.007H445.496V459.892C445.496 459.386 445.434 458.941 445.311 458.572C445.188 458.203 445.01 457.902 444.785 457.684C444.552 457.465 444.293 457.308 443.992 457.205C443.691 457.103 443.356 457.048 442.973 457.048ZM451.98 457.164V457.937H451.952C451.44 457.349 450.77 457.048 449.936 457.048C449.485 457.048 449.054 457.137 448.657 457.314C448.261 457.492 447.919 457.738 447.632 458.046C447.345 458.36 447.126 458.736 446.962 459.174C446.798 459.618 446.716 460.097 446.716 460.603C446.716 461.122 446.798 461.607 446.962 462.045C447.126 462.482 447.352 462.858 447.639 463.159C447.926 463.46 448.275 463.699 448.678 463.863C449.081 464.034 449.519 464.116 449.99 464.116C450.865 464.116 451.542 463.802 452.034 463.173H452.069V464H453.812V457.164H451.98ZM450.325 462.476C449.806 462.476 449.389 462.305 449.061 461.956C448.733 461.614 448.575 461.163 448.575 460.609C448.575 460.035 448.739 459.577 449.074 459.222C449.409 458.873 449.826 458.695 450.332 458.695C450.824 458.695 451.235 458.88 451.563 459.242C451.891 459.611 452.055 460.062 452.055 460.609C452.055 461.163 451.884 461.614 451.556 461.956C451.221 462.305 450.811 462.476 450.325 462.476ZM459.516 457.048C459.093 457.048 458.689 457.137 458.307 457.308C457.924 457.479 457.596 457.725 457.322 458.046H457.302V457.164H455.47V464H457.302V460.562C457.302 459.967 457.438 459.509 457.719 459.181C457.999 458.859 458.375 458.695 458.853 458.695C459.298 458.695 459.626 458.825 459.845 459.078C460.057 459.338 460.166 459.775 460.166 460.404V464.007H461.998V459.946C461.998 459.434 461.936 458.989 461.82 458.606C461.697 458.23 461.526 457.93 461.301 457.704C461.075 457.485 460.815 457.321 460.521 457.212C460.227 457.103 459.892 457.048 459.516 457.048ZM464.613 456.2C464.92 456.2 465.187 456.091 465.413 455.872C465.631 455.653 465.748 455.394 465.748 455.079C465.748 454.778 465.631 454.512 465.413 454.293C465.187 454.074 464.92 453.965 464.613 453.965C464.298 453.965 464.025 454.074 463.806 454.293C463.587 454.512 463.478 454.778 463.478 455.079C463.478 455.284 463.526 455.476 463.628 455.646C463.724 455.817 463.861 455.954 464.039 456.05C464.216 456.152 464.408 456.2 464.613 456.2ZM463.697 464H465.529V457.164H463.697V464ZM469.538 464.116C470.4 464.116 471.056 463.925 471.507 463.528C471.958 463.139 472.191 462.626 472.191 461.99C472.191 461.826 472.177 461.669 472.15 461.532C472.061 461.081 471.794 460.712 471.357 460.438C471.097 460.274 470.591 460.056 469.839 459.775C469.477 459.639 469.217 459.516 469.053 459.406C468.889 459.297 468.814 459.174 468.814 459.037C468.814 458.873 468.882 458.75 469.019 458.661C469.155 458.572 469.306 458.524 469.484 458.524C469.743 458.524 470.017 458.586 470.304 458.709C470.591 458.832 470.858 459.01 471.117 459.249L472.006 457.909C471.616 457.608 471.22 457.39 470.823 457.253C470.42 457.116 469.983 457.048 469.504 457.048C469.039 457.048 468.615 457.137 468.246 457.301C467.877 457.472 467.583 457.711 467.364 458.025C467.146 458.34 467.043 458.695 467.043 459.099C467.043 459.317 467.064 459.516 467.118 459.693C467.166 459.878 467.241 460.042 467.337 460.179C467.433 460.322 467.542 460.452 467.665 460.562C467.788 460.678 467.932 460.78 468.103 460.876C468.267 460.972 468.431 461.047 468.595 461.115C468.759 461.184 468.944 461.252 469.149 461.32C469.47 461.43 469.709 461.512 469.873 461.58C470.037 461.648 470.16 461.724 470.256 461.806C470.345 461.888 470.393 461.977 470.393 462.079C470.393 462.25 470.318 462.387 470.167 462.489C470.017 462.599 469.812 462.646 469.552 462.646C468.855 462.646 468.226 462.38 467.658 461.847L466.77 463.111C467.528 463.781 468.451 464.116 469.538 464.116ZM481.785 457.048C481.293 457.048 480.842 457.144 480.431 457.335C480.021 457.526 479.679 457.793 479.406 458.148H479.386C478.982 457.417 478.305 457.048 477.355 457.048C476.972 457.048 476.603 457.137 476.248 457.314C475.892 457.492 475.578 457.738 475.311 458.066H475.291V457.164H473.459V464H475.291V460.582C475.291 460.186 475.352 459.844 475.482 459.557C475.605 459.27 475.776 459.051 475.995 458.907C476.207 458.771 476.453 458.695 476.733 458.695C477.54 458.695 477.943 459.29 477.943 460.473V464.007H479.775V460.582C479.775 460.186 479.837 459.844 479.96 459.557C480.083 459.27 480.254 459.051 480.466 458.907C480.671 458.771 480.91 458.695 481.17 458.695C481.963 458.695 482.366 459.29 482.366 460.473V464.007H484.198V460.028C484.198 459.017 483.986 458.271 483.562 457.779C483.138 457.294 482.551 457.048 481.785 457.048ZM342.056 478.116C342.473 478.116 342.814 478.082 343.081 478.007C343.341 477.938 343.607 477.829 343.867 477.686L343.396 476.223C343.081 476.387 342.794 476.462 342.534 476.462C342.315 476.462 342.165 476.394 342.069 476.25C341.974 476.113 341.933 475.888 341.933 475.587V472.682H343.792V471.164H341.933V468.73L340.101 468.929V471.164H339.294V472.682H340.101V475.84C340.101 476.592 340.271 477.159 340.62 477.542C340.969 477.925 341.447 478.116 342.056 478.116ZM347.931 478.116C348.629 478.116 349.257 477.973 349.811 477.679C350.358 477.385 350.789 476.968 351.103 476.428C351.411 475.895 351.568 475.279 351.568 474.589C351.568 474.069 351.472 473.591 351.295 473.153C351.117 472.716 350.864 472.34 350.549 472.032C350.228 471.725 349.845 471.485 349.394 471.308C348.943 471.137 348.451 471.048 347.931 471.048C347.398 471.048 346.899 471.137 346.448 471.314C345.99 471.492 345.607 471.738 345.293 472.053C344.978 472.367 344.732 472.736 344.554 473.174C344.377 473.611 344.295 474.083 344.295 474.589C344.295 474.999 344.349 475.382 344.459 475.737C344.568 476.1 344.732 476.428 344.951 476.715C345.163 477.002 345.416 477.255 345.71 477.46C346.004 477.672 346.339 477.836 346.721 477.945C347.097 478.062 347.501 478.116 347.931 478.116ZM347.931 476.476C347.412 476.476 346.981 476.298 346.646 475.936C346.311 475.573 346.147 475.122 346.147 474.589C346.147 474.042 346.311 473.591 346.639 473.235C346.967 472.88 347.398 472.695 347.931 472.695C348.437 472.695 348.861 472.873 349.203 473.229C349.538 473.584 349.709 474.035 349.709 474.589C349.709 475.136 349.538 475.587 349.196 475.942C348.854 476.298 348.43 476.476 347.931 476.476ZM361.337 471.164V471.937H361.309C360.797 471.349 360.127 471.048 359.293 471.048C358.842 471.048 358.411 471.137 358.015 471.314C357.618 471.492 357.276 471.738 356.989 472.046C356.702 472.36 356.483 472.736 356.319 473.174C356.155 473.618 356.073 474.097 356.073 474.603C356.073 475.122 356.155 475.607 356.319 476.045C356.483 476.482 356.709 476.858 356.996 477.159C357.283 477.46 357.632 477.699 358.035 477.863C358.438 478.034 358.876 478.116 359.348 478.116C360.223 478.116 360.899 477.802 361.392 477.173H361.426V478H363.169V471.164H361.337ZM359.683 476.476C359.163 476.476 358.746 476.305 358.418 475.956C358.09 475.614 357.933 475.163 357.933 474.609C357.933 474.035 358.097 473.577 358.432 473.222C358.767 472.873 359.184 472.695 359.689 472.695C360.182 472.695 360.592 472.88 360.92 473.242C361.248 473.611 361.412 474.062 361.412 474.609C361.412 475.163 361.241 475.614 360.913 475.956C360.578 476.305 360.168 476.476 359.683 476.476ZM369.277 471.164V474.479C369.277 475.115 369.127 475.607 368.839 475.949C368.545 476.298 368.183 476.469 367.759 476.469C367.322 476.469 367.007 476.346 366.816 476.1C366.625 475.854 366.536 475.416 366.536 474.801V471.164H364.704V475.279C364.704 475.792 364.758 476.229 364.881 476.599C365.004 476.968 365.175 477.262 365.408 477.48C365.64 477.699 365.9 477.863 366.201 477.966C366.495 478.068 366.836 478.116 367.219 478.116C367.609 478.116 367.978 478.041 368.327 477.877C368.675 477.713 368.983 477.48 369.25 477.166H369.277V478H371.109V471.164H369.277ZM375.904 478.116C376.561 478.116 377.149 478.007 377.668 477.774C378.188 477.549 378.612 477.255 378.926 476.886L377.668 475.778C377.49 475.983 377.265 476.147 376.991 476.277C376.718 476.407 376.417 476.469 376.082 476.469C375.535 476.469 375.098 476.298 374.756 475.942C374.414 475.594 374.25 475.136 374.25 474.575C374.25 474.302 374.291 474.049 374.38 473.816C374.462 473.584 374.585 473.386 374.742 473.222C374.9 473.058 375.091 472.935 375.323 472.839C375.549 472.743 375.795 472.695 376.069 472.695C376.711 472.695 377.237 472.941 377.661 473.427L378.899 472.36C378.557 471.937 378.133 471.615 377.613 471.39C377.094 471.164 376.554 471.048 375.993 471.048C375.296 471.048 374.674 471.198 374.127 471.492C373.58 471.793 373.15 472.21 372.849 472.743C372.541 473.283 372.391 473.898 372.391 474.589C372.391 475.279 372.541 475.895 372.842 476.428C373.143 476.968 373.567 477.385 374.1 477.679C374.633 477.973 375.235 478.116 375.904 478.116ZM382.19 478.116C382.607 478.116 382.949 478.082 383.216 478.007C383.475 477.938 383.742 477.829 384.002 477.686L383.53 476.223C383.216 476.387 382.929 476.462 382.669 476.462C382.45 476.462 382.3 476.394 382.204 476.25C382.108 476.113 382.067 475.888 382.067 475.587V472.682H383.927V471.164H382.067V468.73L380.235 468.929V471.164H379.429V472.682H380.235V475.84C380.235 476.592 380.406 477.159 380.755 477.542C381.103 477.925 381.582 478.116 382.19 478.116ZM386.145 470.2C386.453 470.2 386.719 470.091 386.945 469.872C387.164 469.653 387.28 469.394 387.28 469.079C387.28 468.778 387.164 468.512 386.945 468.293C386.719 468.074 386.453 467.965 386.145 467.965C385.831 467.965 385.557 468.074 385.338 468.293C385.12 468.512 385.01 468.778 385.01 469.079C385.01 469.284 385.058 469.476 385.161 469.646C385.256 469.817 385.393 469.954 385.571 470.05C385.749 470.152 385.94 470.2 386.145 470.2ZM385.229 478H387.061V471.164H385.229V478ZM392.123 478.116C392.82 478.116 393.449 477.973 394.003 477.679C394.55 477.385 394.981 476.968 395.295 476.428C395.603 475.895 395.76 475.279 395.76 474.589C395.76 474.069 395.664 473.591 395.486 473.153C395.309 472.716 395.056 472.34 394.741 472.032C394.42 471.725 394.037 471.485 393.586 471.308C393.135 471.137 392.643 471.048 392.123 471.048C391.59 471.048 391.091 471.137 390.64 471.314C390.182 471.492 389.799 471.738 389.484 472.053C389.17 472.367 388.924 472.736 388.746 473.174C388.568 473.611 388.486 474.083 388.486 474.589C388.486 474.999 388.541 475.382 388.651 475.737C388.76 476.1 388.924 476.428 389.143 476.715C389.355 477.002 389.608 477.255 389.901 477.46C390.195 477.672 390.53 477.836 390.913 477.945C391.289 478.062 391.693 478.116 392.123 478.116ZM392.123 476.476C391.604 476.476 391.173 476.298 390.838 475.936C390.503 475.573 390.339 475.122 390.339 474.589C390.339 474.042 390.503 473.591 390.831 473.235C391.159 472.88 391.59 472.695 392.123 472.695C392.629 472.695 393.053 472.873 393.395 473.229C393.73 473.584 393.901 474.035 393.901 474.589C393.901 475.136 393.73 475.587 393.388 475.942C393.046 476.298 392.622 476.476 392.123 476.476ZM401.15 471.048C400.726 471.048 400.323 471.137 399.94 471.308C399.557 471.479 399.229 471.725 398.956 472.046H398.935V471.164H397.103V478H398.935V474.562C398.935 473.967 399.072 473.509 399.352 473.181C399.633 472.859 400.009 472.695 400.487 472.695C400.931 472.695 401.26 472.825 401.478 473.078C401.69 473.338 401.8 473.775 401.8 474.404V478.007H403.632V473.946C403.632 473.434 403.57 472.989 403.454 472.606C403.331 472.23 403.16 471.93 402.934 471.704C402.709 471.485 402.449 471.321 402.155 471.212C401.861 471.103 401.526 471.048 401.15 471.048ZM413.674 471.164V471.937H413.647C413.134 471.349 412.464 471.048 411.63 471.048C411.179 471.048 410.748 471.137 410.352 471.314C409.955 471.492 409.613 471.738 409.326 472.046C409.039 472.36 408.82 472.736 408.656 473.174C408.492 473.618 408.41 474.097 408.41 474.603C408.41 475.122 408.492 475.607 408.656 476.045C408.82 476.482 409.046 476.858 409.333 477.159C409.62 477.46 409.969 477.699 410.372 477.863C410.775 478.034 411.213 478.116 411.685 478.116C412.56 478.116 413.236 477.802 413.729 477.173H413.763V478H415.506V471.164H413.674ZM412.02 476.476C411.5 476.476 411.083 476.305 410.755 475.956C410.427 475.614 410.27 475.163 410.27 474.609C410.27 474.035 410.434 473.577 410.769 473.222C411.104 472.873 411.521 472.695 412.026 472.695C412.519 472.695 412.929 472.88 413.257 473.242C413.585 473.611 413.749 474.062 413.749 474.609C413.749 475.163 413.578 475.614 413.25 475.956C412.915 476.305 412.505 476.476 412.02 476.476ZM419.372 478.116C420.233 478.116 420.889 477.925 421.341 477.528C421.792 477.139 422.024 476.626 422.024 475.99C422.024 475.826 422.01 475.669 421.983 475.532C421.894 475.081 421.628 474.712 421.19 474.438C420.93 474.274 420.424 474.056 419.673 473.775C419.31 473.639 419.05 473.516 418.886 473.406C418.722 473.297 418.647 473.174 418.647 473.037C418.647 472.873 418.716 472.75 418.852 472.661C418.989 472.572 419.139 472.524 419.317 472.524C419.577 472.524 419.85 472.586 420.137 472.709C420.424 472.832 420.691 473.01 420.951 473.249L421.84 471.909C421.45 471.608 421.053 471.39 420.657 471.253C420.254 471.116 419.816 471.048 419.338 471.048C418.873 471.048 418.449 471.137 418.08 471.301C417.711 471.472 417.417 471.711 417.198 472.025C416.979 472.34 416.877 472.695 416.877 473.099C416.877 473.317 416.897 473.516 416.952 473.693C417 473.878 417.075 474.042 417.171 474.179C417.266 474.322 417.376 474.452 417.499 474.562C417.622 474.678 417.765 474.78 417.936 474.876C418.1 474.972 418.264 475.047 418.428 475.115C418.592 475.184 418.777 475.252 418.982 475.32C419.303 475.43 419.543 475.512 419.707 475.58C419.871 475.648 419.994 475.724 420.09 475.806C420.178 475.888 420.226 475.977 420.226 476.079C420.226 476.25 420.151 476.387 420.001 476.489C419.85 476.599 419.645 476.646 419.385 476.646C418.688 476.646 418.059 476.38 417.492 475.847L416.603 477.111C417.362 477.781 418.285 478.116 419.372 478.116ZM425.507 478.116C426.368 478.116 427.025 477.925 427.476 477.528C427.927 477.139 428.159 476.626 428.159 475.99C428.159 475.826 428.146 475.669 428.118 475.532C428.03 475.081 427.763 474.712 427.326 474.438C427.066 474.274 426.56 474.056 425.808 473.775C425.446 473.639 425.186 473.516 425.022 473.406C424.858 473.297 424.783 473.174 424.783 473.037C424.783 472.873 424.851 472.75 424.988 472.661C425.124 472.572 425.275 472.524 425.452 472.524C425.712 472.524 425.986 472.586 426.273 472.709C426.56 472.832 426.826 473.01 427.086 473.249L427.975 471.909C427.585 471.608 427.189 471.39 426.792 471.253C426.389 471.116 425.951 471.048 425.473 471.048C425.008 471.048 424.584 471.137 424.215 471.301C423.846 471.472 423.552 471.711 423.333 472.025C423.115 472.34 423.012 472.695 423.012 473.099C423.012 473.317 423.033 473.516 423.087 473.693C423.135 473.878 423.21 474.042 423.306 474.179C423.402 474.322 423.511 474.452 423.634 474.562C423.757 474.678 423.901 474.78 424.072 474.876C424.236 474.972 424.4 475.047 424.564 475.115C424.728 475.184 424.912 475.252 425.118 475.32C425.439 475.43 425.678 475.512 425.842 475.58C426.006 475.648 426.129 475.724 426.225 475.806C426.314 475.888 426.362 475.977 426.362 476.079C426.362 476.25 426.286 476.387 426.136 476.489C425.986 476.599 425.781 476.646 425.521 476.646C424.824 476.646 424.195 476.38 423.627 475.847L422.739 477.111C423.497 477.781 424.42 478.116 425.507 478.116ZM435.737 474.521C435.737 473.857 435.594 473.263 435.32 472.736C435.04 472.21 434.644 471.8 434.138 471.499C433.625 471.198 433.037 471.048 432.381 471.048C431.902 471.048 431.451 471.137 431.034 471.308C430.61 471.485 430.255 471.725 429.954 472.032C429.653 472.34 429.421 472.716 429.25 473.153C429.072 473.591 428.99 474.069 428.99 474.575C428.99 475.272 429.141 475.895 429.448 476.435C429.756 476.981 430.18 477.398 430.713 477.686C431.246 477.973 431.841 478.116 432.511 478.116C433.167 478.116 433.741 478 434.247 477.768C434.746 477.535 435.149 477.221 435.464 476.824L434.274 475.717C433.844 476.236 433.297 476.496 432.641 476.489C432.203 476.489 431.827 476.366 431.519 476.134C431.212 475.901 431.007 475.587 430.897 475.177H435.689C435.717 475.067 435.737 474.849 435.737 474.521ZM432.442 472.661C432.825 472.661 433.146 472.771 433.399 472.982C433.645 473.194 433.823 473.488 433.919 473.857H430.904C431.007 473.475 431.191 473.174 431.465 472.969C431.738 472.764 432.06 472.661 432.442 472.661ZM439.186 478.116C439.603 478.116 439.945 478.082 440.212 478.007C440.471 477.938 440.738 477.829 440.998 477.686L440.526 476.223C440.212 476.387 439.924 476.462 439.665 476.462C439.446 476.462 439.296 476.394 439.2 476.25C439.104 476.113 439.063 475.888 439.063 475.587V472.682H440.922V471.164H439.063V468.73L437.231 468.929V471.164H436.424V472.682H437.231V475.84C437.231 476.592 437.402 477.159 437.751 477.542C438.099 477.925 438.578 478.116 439.186 478.116ZM444.351 478.116C445.212 478.116 445.868 477.925 446.32 477.528C446.771 477.139 447.003 476.626 447.003 475.99C447.003 475.826 446.989 475.669 446.962 475.532C446.873 475.081 446.607 474.712 446.169 474.438C445.909 474.274 445.404 474.056 444.652 473.775C444.289 473.639 444.03 473.516 443.865 473.406C443.701 473.297 443.626 473.174 443.626 473.037C443.626 472.873 443.695 472.75 443.831 472.661C443.968 472.572 444.118 472.524 444.296 472.524C444.556 472.524 444.829 472.586 445.116 472.709C445.404 472.832 445.67 473.01 445.93 473.249L446.819 471.909C446.429 471.608 446.032 471.39 445.636 471.253C445.233 471.116 444.795 471.048 444.317 471.048C443.852 471.048 443.428 471.137 443.059 471.301C442.69 471.472 442.396 471.711 442.177 472.025C441.958 472.34 441.856 472.695 441.856 473.099C441.856 473.317 441.876 473.516 441.931 473.693C441.979 473.878 442.054 474.042 442.15 474.179C442.245 474.322 442.355 474.452 442.478 474.562C442.601 474.678 442.744 474.78 442.915 474.876C443.079 474.972 443.243 475.047 443.407 475.115C443.572 475.184 443.756 475.252 443.961 475.32C444.282 475.43 444.522 475.512 444.686 475.58C444.85 475.648 444.973 475.724 445.069 475.806C445.157 475.888 445.205 475.977 445.205 476.079C445.205 476.25 445.13 476.387 444.98 476.489C444.829 476.599 444.624 476.646 444.364 476.646C443.667 476.646 443.038 476.38 442.471 475.847L441.582 477.111C442.341 477.781 443.264 478.116 444.351 478.116ZM455.09 478.116C455.788 478.116 456.417 477.973 456.97 477.679C457.517 477.385 457.948 476.968 458.262 476.428C458.57 475.895 458.727 475.279 458.727 474.589C458.727 474.069 458.631 473.591 458.454 473.153C458.276 472.716 458.023 472.34 457.709 472.032C457.387 471.725 457.004 471.485 456.553 471.308C456.102 471.137 455.61 471.048 455.09 471.048C454.557 471.048 454.058 471.137 453.607 471.314C453.149 471.492 452.766 471.738 452.452 472.053C452.137 472.367 451.891 472.736 451.713 473.174C451.536 473.611 451.454 474.083 451.454 474.589C451.454 474.999 451.508 475.382 451.618 475.737C451.727 476.1 451.891 476.428 452.11 476.715C452.322 477.002 452.575 477.255 452.869 477.46C453.163 477.672 453.498 477.836 453.88 477.945C454.256 478.062 454.66 478.116 455.09 478.116ZM455.09 476.476C454.571 476.476 454.14 476.298 453.805 475.936C453.47 475.573 453.306 475.122 453.306 474.589C453.306 474.042 453.47 473.591 453.798 473.235C454.126 472.88 454.557 472.695 455.09 472.695C455.596 472.695 456.02 472.873 456.362 473.229C456.697 473.584 456.868 474.035 456.868 474.589C456.868 475.136 456.697 475.587 456.355 475.942C456.013 476.298 455.589 476.476 455.09 476.476ZM464.117 471.048C463.694 471.048 463.29 471.137 462.907 471.308C462.525 471.479 462.196 471.725 461.923 472.046H461.902V471.164H460.07V478H461.902V474.562C461.902 473.967 462.039 473.509 462.319 473.181C462.6 472.859 462.976 472.695 463.454 472.695C463.899 472.695 464.227 472.825 464.445 473.078C464.657 473.338 464.767 473.775 464.767 474.404V478.007H466.599V473.946C466.599 473.434 466.537 472.989 466.421 472.606C466.298 472.23 466.127 471.93 465.902 471.704C465.676 471.485 465.416 471.321 465.122 471.212C464.828 471.103 464.493 471.048 464.117 471.048ZM471.924 478H478.576V476.243H473.866V473.939H477.407V472.203H473.866V469.817H478.282V468.054H471.924V478ZM482.024 478.116C482.441 478.116 482.783 478.082 483.05 478.007C483.31 477.938 483.576 477.829 483.836 477.686L483.364 476.223C483.05 476.387 482.763 476.462 482.503 476.462C482.284 476.462 482.134 476.394 482.038 476.25C481.942 476.113 481.901 475.888 481.901 475.587V472.682H483.761V471.164H481.901V468.73L480.069 468.929V471.164H479.263V472.682H480.069V475.84C480.069 476.592 480.24 477.159 480.589 477.542C480.938 477.925 481.416 478.116 482.024 478.116ZM489.062 471.048C488.618 471.048 488.208 471.13 487.825 471.287C487.442 471.451 487.114 471.684 486.841 471.991H486.813V467.691H484.981V478H486.813V474.534C486.813 473.933 486.95 473.481 487.237 473.167C487.517 472.853 487.907 472.695 488.413 472.695C488.864 472.695 489.199 472.825 489.418 473.071C489.636 473.324 489.746 473.755 489.746 474.356V478.007H491.585V473.892C491.585 473.386 491.523 472.941 491.4 472.572C491.277 472.203 491.099 471.902 490.874 471.684C490.641 471.465 490.382 471.308 490.081 471.205C489.78 471.103 489.445 471.048 489.062 471.048ZM499.566 474.521C499.566 473.857 499.422 473.263 499.149 472.736C498.869 472.21 498.472 471.8 497.966 471.499C497.453 471.198 496.866 471.048 496.209 471.048C495.731 471.048 495.28 471.137 494.863 471.308C494.439 471.485 494.083 471.725 493.783 472.032C493.482 472.34 493.249 472.716 493.078 473.153C492.901 473.591 492.819 474.069 492.819 474.575C492.819 475.272 492.969 475.895 493.277 476.435C493.584 476.981 494.008 477.398 494.541 477.686C495.075 477.973 495.669 478.116 496.339 478.116C496.995 478.116 497.57 478 498.076 477.768C498.575 477.535 498.978 477.221 499.292 476.824L498.103 475.717C497.672 476.236 497.125 476.496 496.469 476.489C496.032 476.489 495.656 476.366 495.348 476.134C495.04 475.901 494.835 475.587 494.726 475.177H499.518C499.545 475.067 499.566 474.849 499.566 474.521ZM496.271 472.661C496.654 472.661 496.975 472.771 497.228 472.982C497.474 473.194 497.652 473.488 497.747 473.857H494.733C494.835 473.475 495.02 473.174 495.293 472.969C495.567 472.764 495.888 472.661 496.271 472.661ZM504.806 471.048C504.396 471.048 504.02 471.15 503.664 471.342C503.309 471.533 503.001 471.813 502.741 472.169H502.721V471.164H500.889V478H502.721V474.828C502.721 474.309 502.871 473.878 503.179 473.543C503.486 473.215 503.917 473.044 504.464 473.044C504.601 473.044 504.765 473.051 504.949 473.064V471.055C504.922 471.055 504.874 471.048 504.806 471.048ZM512.192 474.521C512.192 473.857 512.048 473.263 511.775 472.736C511.495 472.21 511.098 471.8 510.592 471.499C510.08 471.198 509.492 471.048 508.836 471.048C508.357 471.048 507.906 471.137 507.489 471.308C507.065 471.485 506.71 471.725 506.409 472.032C506.108 472.34 505.876 472.716 505.705 473.153C505.527 473.591 505.445 474.069 505.445 474.575C505.445 475.272 505.595 475.895 505.903 476.435C506.211 476.981 506.634 477.398 507.168 477.686C507.701 477.973 508.296 478.116 508.965 478.116C509.622 478.116 510.196 478 510.702 477.768C511.201 477.535 511.604 477.221 511.919 476.824L510.729 475.717C510.298 476.236 509.752 476.496 509.095 476.489C508.658 476.489 508.282 476.366 507.974 476.134C507.667 475.901 507.462 475.587 507.352 475.177H512.144C512.172 475.067 512.192 474.849 512.192 474.521ZM508.897 472.661C509.28 472.661 509.601 472.771 509.854 472.982C510.1 473.194 510.278 473.488 510.374 473.857H507.359C507.462 473.475 507.646 473.174 507.92 472.969C508.193 472.764 508.514 472.661 508.897 472.661ZM517.965 471.164V474.479C517.965 475.115 517.815 475.607 517.528 475.949C517.234 476.298 516.871 476.469 516.448 476.469C516.01 476.469 515.696 476.346 515.504 476.1C515.313 475.854 515.224 475.416 515.224 474.801V471.164H513.392V475.279C513.392 475.792 513.447 476.229 513.57 476.599C513.693 476.968 513.864 477.262 514.096 477.48C514.328 477.699 514.588 477.863 514.889 477.966C515.183 478.068 515.525 478.116 515.908 478.116C516.297 478.116 516.666 478.041 517.015 477.877C517.364 477.713 517.671 477.48 517.938 477.166H517.965V478H519.797V471.164H517.965ZM529.774 471.048C529.282 471.048 528.831 471.144 528.421 471.335C528.011 471.526 527.669 471.793 527.395 472.148H527.375C526.972 471.417 526.295 471.048 525.345 471.048C524.962 471.048 524.593 471.137 524.237 471.314C523.882 471.492 523.567 471.738 523.301 472.066H523.28V471.164H521.448V478H523.28V474.582C523.28 474.186 523.342 473.844 523.472 473.557C523.595 473.27 523.766 473.051 523.984 472.907C524.196 472.771 524.442 472.695 524.723 472.695C525.529 472.695 525.933 473.29 525.933 474.473V478.007H527.765V474.582C527.765 474.186 527.826 473.844 527.949 473.557C528.072 473.27 528.243 473.051 528.455 472.907C528.66 472.771 528.899 472.695 529.159 472.695C529.952 472.695 530.355 473.29 530.355 474.473V478.007H532.187V474.028C532.187 473.017 531.976 472.271 531.552 471.779C531.128 471.294 530.54 471.048 529.774 471.048Z" fill="#001429"/>
<path d="M350.062 408.93V408.883C350.508 408.707 350.895 408.473 351.223 408.191C351.551 407.91 351.809 407.594 351.996 407.254C352.184 406.914 352.312 406.562 352.406 406.211C352.488 405.859 352.535 405.496 352.535 405.121C352.535 404.465 352.418 403.879 352.184 403.363C351.949 402.848 351.609 402.414 351.152 402.051C350.684 401.699 350.098 401.418 349.395 401.23C348.68 401.043 347.859 400.949 346.922 400.949H340.488V418H347.965C348.855 418 349.641 417.883 350.344 417.648C351.047 417.414 351.621 417.074 352.066 416.652C352.512 416.23 352.84 415.727 353.074 415.152C353.297 414.578 353.414 413.945 353.414 413.242C353.414 412.164 353.133 411.25 352.582 410.5C352.02 409.762 351.188 409.234 350.062 408.93ZM344.426 404.488H346.184C346.957 404.488 347.531 404.629 347.906 404.922C348.281 405.215 348.48 405.613 348.48 406.117C348.48 406.645 348.27 407.043 347.871 407.324C347.461 407.605 346.945 407.746 346.312 407.746H344.426V404.488ZM346.734 414.496H344.426V410.898H346.734C347.555 410.898 348.188 411.062 348.609 411.391C349.031 411.719 349.242 412.164 349.242 412.703C349.242 413.008 349.172 413.266 349.055 413.488C348.938 413.723 348.762 413.91 348.539 414.051C348.316 414.191 348.059 414.309 347.754 414.379C347.449 414.461 347.109 414.496 346.734 414.496ZM363.38 406.258V412.07C363.38 412.984 363.181 413.688 362.794 414.168C362.396 414.648 361.904 414.883 361.318 414.883C360.673 414.883 360.216 414.695 359.935 414.297C359.654 413.898 359.525 413.23 359.525 412.293V406.258H355.775V413.219C355.775 416.559 357.181 418.223 360.005 418.223C361.353 418.223 362.454 417.707 363.322 416.676H363.38V418H367.142V406.258H363.38ZM372.268 404.863C372.924 404.863 373.487 404.664 373.932 404.254C374.378 403.844 374.612 403.316 374.612 402.672C374.612 402.039 374.378 401.523 373.932 401.113C373.487 400.703 372.924 400.492 372.268 400.492C371.835 400.492 371.436 400.586 371.085 400.773C370.733 400.961 370.452 401.219 370.241 401.547C370.03 401.875 369.924 402.25 369.924 402.672C369.924 403.316 370.147 403.844 370.592 404.254C371.038 404.664 371.6 404.863 372.268 404.863ZM370.393 418H374.131V406.258H370.393V418ZM377.582 418H381.32V400.328H377.582V418ZM388.38 418.223C389.13 418.223 389.739 418.164 390.22 418.023C390.7 417.883 391.181 417.684 391.661 417.414L390.735 414.648C390.349 414.848 389.962 414.941 389.575 414.941C389.235 414.941 389.001 414.824 388.872 414.59C388.743 414.355 388.685 414.027 388.685 413.605V409.316H391.532V406.258H388.685V402.109L384.935 402.508V406.258H383.61V409.316H384.935V414.309C384.935 415.598 385.239 416.57 385.872 417.227C386.493 417.895 387.325 418.223 388.38 418.223ZM408.136 406.258V412.07C408.136 412.984 407.937 413.688 407.55 414.168C407.152 414.648 406.66 414.883 406.074 414.883C405.429 414.883 404.972 414.695 404.691 414.297C404.41 413.898 404.281 413.23 404.281 412.293V406.258H400.531V413.219C400.531 416.559 401.937 418.223 404.761 418.223C406.109 418.223 407.211 417.707 408.078 416.676H408.136V418H411.898V406.258H408.136ZM418.946 418.234C419.72 418.234 420.411 418.141 421.02 417.953C421.63 417.766 422.122 417.496 422.509 417.156C422.884 416.816 423.177 416.418 423.376 415.961C423.563 415.504 423.669 415 423.669 414.438C423.669 414.203 423.645 413.992 423.622 413.793C423.599 413.594 423.552 413.406 423.493 413.23C423.423 413.055 423.364 412.891 423.294 412.75C423.224 412.609 423.118 412.48 423.001 412.34C422.872 412.199 422.755 412.082 422.638 411.977C422.52 411.883 422.368 411.777 422.181 411.66C421.993 411.555 421.829 411.461 421.665 411.379C421.501 411.297 421.302 411.203 421.067 411.098C420.821 411.004 420.599 410.91 420.399 410.84C420.2 410.77 419.954 410.676 419.661 410.559C419.11 410.371 418.712 410.195 418.478 410.031C418.243 409.879 418.126 409.727 418.126 409.574C418.126 409.363 418.208 409.211 418.384 409.117C418.548 409.023 418.747 408.977 418.958 408.977C419.368 408.977 419.813 409.082 420.294 409.293C420.763 409.504 421.208 409.809 421.606 410.207L423.388 407.523C422.919 407.184 422.462 406.902 422.017 406.691C421.56 406.48 421.079 406.316 420.587 406.199C420.083 406.094 419.544 406.035 418.97 406.035C418.138 406.035 417.388 406.188 416.731 406.48C416.063 406.785 415.536 407.219 415.149 407.781C414.751 408.344 414.563 409 414.563 409.738C414.563 410.066 414.587 410.383 414.657 410.664C414.728 410.945 414.821 411.203 414.938 411.426C415.056 411.66 415.208 411.871 415.395 412.07C415.571 412.27 415.759 412.445 415.958 412.586C416.157 412.738 416.392 412.879 416.649 413.02C416.907 413.16 417.153 413.277 417.411 413.371C417.657 413.465 417.927 413.559 418.231 413.652C418.923 413.875 419.392 414.062 419.649 414.203C419.907 414.344 420.036 414.496 420.036 414.648C420.036 414.789 419.989 414.918 419.907 415.012C419.825 415.105 419.708 415.188 419.556 415.234C419.392 415.281 419.204 415.305 418.981 415.305C417.868 415.305 416.837 414.859 415.899 413.969L414.118 416.488C415.442 417.66 417.048 418.234 418.946 418.234ZM428.221 404.863C428.877 404.863 429.44 404.664 429.885 404.254C430.33 403.844 430.565 403.316 430.565 402.672C430.565 402.039 430.33 401.523 429.885 401.113C429.44 400.703 428.877 400.492 428.221 400.492C427.787 400.492 427.389 400.586 427.037 400.773C426.686 400.961 426.405 401.219 426.194 401.547C425.983 401.875 425.877 402.25 425.877 402.672C425.877 403.316 426.1 403.844 426.545 404.254C426.99 404.664 427.553 404.863 428.221 404.863ZM426.346 418H430.084V406.258H426.346V418ZM440.73 406.035C440.039 406.035 439.394 406.176 438.785 406.457C438.175 406.738 437.636 407.148 437.179 407.676H437.156V406.258H433.406V418H437.156V412.105C437.156 411.52 437.238 411.016 437.425 410.594C437.613 410.184 437.859 409.879 438.187 409.68C438.503 409.492 438.878 409.387 439.312 409.387C439.746 409.387 440.097 409.469 440.355 409.609C440.613 409.75 440.824 410.008 440.964 410.383C441.105 410.758 441.187 411.25 441.187 411.883V418H444.937V410.957C444.937 410.066 444.832 409.293 444.632 408.637C444.421 407.992 444.128 407.477 443.742 407.102C443.355 406.727 442.921 406.457 442.429 406.293C441.937 406.129 441.363 406.035 440.73 406.035ZM456.016 406.258V407.418H455.958C455.079 406.504 453.966 406.035 452.618 406.035C451.634 406.035 450.743 406.293 449.946 406.809C449.149 407.324 448.528 408.027 448.083 408.941C447.626 409.855 447.403 410.875 447.403 412.012C447.403 413.113 447.626 414.098 448.095 414.977C448.552 415.855 449.196 416.535 450.016 417.027C450.837 417.52 451.774 417.766 452.817 417.766C454.165 417.766 455.243 417.344 456.052 416.488H456.11V417.602C456.11 418.246 455.841 418.773 455.302 419.195C454.762 419.617 454.012 419.828 453.04 419.828C451.809 419.828 450.614 419.488 449.454 418.809L448.61 421.844C449.313 422.242 450.063 422.535 450.837 422.711C451.61 422.887 452.477 422.969 453.45 422.969C454.118 422.969 454.727 422.922 455.29 422.805C455.852 422.699 456.345 422.547 456.778 422.348C457.2 422.148 457.587 421.902 457.927 421.609C458.266 421.316 458.548 420.988 458.782 420.625C459.016 420.273 459.204 419.863 459.356 419.418C459.497 418.973 459.602 418.516 459.673 418.023C459.743 417.543 459.778 417.016 459.778 416.453V406.258H456.016ZM453.696 414.426C452.97 414.426 452.372 414.203 451.903 413.734C451.423 413.266 451.188 412.656 451.188 411.906C451.188 411.168 451.423 410.559 451.891 410.09C452.36 409.621 452.97 409.387 453.696 409.387C454.399 409.387 454.985 409.621 455.466 410.09C455.934 410.559 456.18 411.168 456.18 411.895C456.18 412.645 455.946 413.254 455.477 413.723C455.009 414.191 454.411 414.426 453.696 414.426ZM348.645 444.188C349.934 444.188 351.188 444 352.406 443.613C353.625 443.238 354.633 442.734 355.418 442.113V434.449H348.293V437.836H351.562V439.77C350.625 440.285 349.652 440.531 348.645 440.531C347.941 440.531 347.297 440.402 346.711 440.133C346.125 439.875 345.645 439.512 345.258 439.055C344.871 438.609 344.578 438.07 344.367 437.461C344.156 436.852 344.051 436.207 344.051 435.516C344.051 434.742 344.168 434.039 344.402 433.395C344.637 432.762 344.965 432.223 345.363 431.801C345.762 431.379 346.23 431.062 346.77 430.828C347.309 430.605 347.871 430.488 348.48 430.488C350.027 430.488 351.387 431.051 352.547 432.176L355.383 429.762C354.539 428.789 353.496 428.039 352.254 427.512C351.012 426.984 349.758 426.715 348.492 426.715C347.156 426.715 345.949 426.949 344.859 427.395C343.758 427.852 342.855 428.473 342.129 429.258C341.402 430.055 340.852 430.98 340.453 432.047C340.055 433.125 339.867 434.273 339.867 435.516C339.867 436.605 340.008 437.613 340.301 438.539C340.594 439.477 341.004 440.285 341.543 440.965C342.07 441.656 342.703 442.242 343.43 442.734C344.156 443.227 344.953 443.59 345.844 443.824C346.723 444.07 347.66 444.188 348.645 444.188ZM365.829 432.035C365.138 432.035 364.493 432.176 363.884 432.457C363.275 432.738 362.736 433.148 362.279 433.676H362.255V432.258H358.505V444H362.255V438.105C362.255 437.52 362.337 437.016 362.525 436.594C362.712 436.184 362.958 435.879 363.286 435.68C363.603 435.492 363.978 435.387 364.411 435.387C364.845 435.387 365.197 435.469 365.454 435.609C365.712 435.75 365.923 436.008 366.064 436.383C366.204 436.758 366.286 437.25 366.286 437.883V444H370.036V436.957C370.036 436.066 369.931 435.293 369.732 434.637C369.521 433.992 369.228 433.477 368.841 433.102C368.454 432.727 368.021 432.457 367.529 432.293C367.036 432.129 366.462 432.035 365.829 432.035ZM378.877 444.234C380.096 444.234 381.198 443.988 382.159 443.473C383.12 442.957 383.858 442.242 384.397 441.316C384.936 440.391 385.206 439.336 385.206 438.141C385.206 436.957 384.936 435.902 384.397 434.965C383.858 434.039 383.12 433.324 382.159 432.809C381.198 432.293 380.096 432.035 378.877 432.035C377.94 432.035 377.085 432.188 376.299 432.492C375.502 432.797 374.835 433.219 374.284 433.758C373.733 434.297 373.299 434.941 372.995 435.691C372.69 436.441 372.538 437.262 372.538 438.141C372.538 439.031 372.69 439.852 372.995 440.602C373.299 441.352 373.733 441.996 374.284 442.535C374.835 443.074 375.502 443.484 376.299 443.789C377.085 444.094 377.94 444.234 378.877 444.234ZM378.877 440.895C378.139 440.895 377.53 440.637 377.049 440.109C376.557 439.594 376.323 438.938 376.323 438.141C376.323 437.344 376.557 436.676 377.038 436.16C377.506 435.645 378.127 435.387 378.877 435.387C379.604 435.387 380.213 435.645 380.694 436.16C381.174 436.676 381.42 437.332 381.42 438.141C381.42 438.938 381.174 439.605 380.682 440.121C380.19 440.637 379.592 440.895 378.877 440.895ZM391.762 444.234C392.535 444.234 393.226 444.141 393.836 443.953C394.445 443.766 394.937 443.496 395.324 443.156C395.699 442.816 395.992 442.418 396.191 441.961C396.379 441.504 396.484 441 396.484 440.438C396.484 440.203 396.461 439.992 396.437 439.793C396.414 439.594 396.367 439.406 396.308 439.23C396.238 439.055 396.18 438.891 396.109 438.75C396.039 438.609 395.933 438.48 395.816 438.34C395.687 438.199 395.57 438.082 395.453 437.977C395.336 437.883 395.183 437.777 394.996 437.66C394.808 437.555 394.644 437.461 394.48 437.379C394.316 437.297 394.117 437.203 393.883 437.098C393.637 437.004 393.414 436.91 393.215 436.84C393.015 436.77 392.769 436.676 392.476 436.559C391.926 436.371 391.527 436.195 391.293 436.031C391.058 435.879 390.941 435.727 390.941 435.574C390.941 435.363 391.023 435.211 391.199 435.117C391.363 435.023 391.562 434.977 391.773 434.977C392.183 434.977 392.629 435.082 393.109 435.293C393.578 435.504 394.023 435.809 394.422 436.207L396.203 433.523C395.734 433.184 395.277 432.902 394.832 432.691C394.375 432.48 393.894 432.316 393.402 432.199C392.898 432.094 392.359 432.035 391.785 432.035C390.953 432.035 390.203 432.188 389.547 432.48C388.879 432.785 388.351 433.219 387.965 433.781C387.566 434.344 387.379 435 387.379 435.738C387.379 436.066 387.402 436.383 387.472 436.664C387.543 436.945 387.637 437.203 387.754 437.426C387.871 437.66 388.023 437.871 388.211 438.07C388.387 438.27 388.574 438.445 388.773 438.586C388.972 438.738 389.207 438.879 389.465 439.02C389.722 439.16 389.969 439.277 390.226 439.371C390.472 439.465 390.742 439.559 391.047 439.652C391.738 439.875 392.207 440.062 392.465 440.203C392.722 440.344 392.851 440.496 392.851 440.648C392.851 440.789 392.805 440.918 392.722 441.012C392.64 441.105 392.523 441.188 392.371 441.234C392.207 441.281 392.019 441.305 391.797 441.305C390.683 441.305 389.652 440.859 388.715 439.969L386.933 442.488C388.258 443.66 389.863 444.234 391.762 444.234ZM401.036 430.863C401.693 430.863 402.255 430.664 402.7 430.254C403.146 429.844 403.38 429.316 403.38 428.672C403.38 428.039 403.146 427.523 402.7 427.113C402.255 426.703 401.693 426.492 401.036 426.492C400.603 426.492 400.204 426.586 399.853 426.773C399.501 426.961 399.22 427.219 399.009 427.547C398.798 427.875 398.693 428.25 398.693 428.672C398.693 429.316 398.915 429.844 399.36 430.254C399.806 430.664 400.368 430.863 401.036 430.863ZM399.161 444H402.9V432.258H399.161V444ZM410.147 444.234C410.92 444.234 411.612 444.141 412.221 443.953C412.83 443.766 413.323 443.496 413.709 443.156C414.084 442.816 414.377 442.418 414.577 441.961C414.764 441.504 414.87 441 414.87 440.438C414.87 440.203 414.846 439.992 414.823 439.793C414.799 439.594 414.752 439.406 414.694 439.23C414.623 439.055 414.565 438.891 414.495 438.75C414.424 438.609 414.319 438.48 414.202 438.34C414.073 438.199 413.955 438.082 413.838 437.977C413.721 437.883 413.569 437.777 413.381 437.66C413.194 437.555 413.03 437.461 412.866 437.379C412.702 437.297 412.502 437.203 412.268 437.098C412.022 437.004 411.799 436.91 411.6 436.84C411.401 436.77 411.155 436.676 410.862 436.559C410.311 436.371 409.912 436.195 409.678 436.031C409.444 435.879 409.327 435.727 409.327 435.574C409.327 435.363 409.409 435.211 409.584 435.117C409.748 435.023 409.948 434.977 410.159 434.977C410.569 434.977 411.014 435.082 411.495 435.293C411.963 435.504 412.409 435.809 412.807 436.207L414.588 433.523C414.12 433.184 413.662 432.902 413.217 432.691C412.76 432.48 412.28 432.316 411.787 432.199C411.284 432.094 410.745 432.035 410.17 432.035C409.338 432.035 408.588 432.188 407.932 432.48C407.264 432.785 406.737 433.219 406.35 433.781C405.952 434.344 405.764 435 405.764 435.738C405.764 436.066 405.787 436.383 405.858 436.664C405.928 436.945 406.022 437.203 406.139 437.426C406.256 437.66 406.409 437.871 406.596 438.07C406.772 438.27 406.959 438.445 407.159 438.586C407.358 438.738 407.592 438.879 407.85 439.02C408.108 439.16 408.354 439.277 408.612 439.371C408.858 439.465 409.127 439.559 409.432 439.652C410.123 439.875 410.592 440.062 410.85 440.203C411.108 440.344 411.237 440.496 411.237 440.648C411.237 440.789 411.19 440.918 411.108 441.012C411.026 441.105 410.909 441.188 410.756 441.234C410.592 441.281 410.405 441.305 410.182 441.305C409.069 441.305 408.037 440.859 407.1 439.969L405.319 442.488C406.643 443.66 408.248 444.234 410.147 444.234ZM435.048 444H439.243L432.974 426.949H429.13L422.884 444H427.079L428.063 440.953H434.052L435.048 444ZM429.165 437.555L431.028 431.801H431.075L432.95 437.555H429.165ZM448.483 432.258V438.07C448.483 438.984 448.283 439.688 447.897 440.168C447.498 440.648 447.006 440.883 446.42 440.883C445.776 440.883 445.319 440.695 445.037 440.297C444.756 439.898 444.627 439.23 444.627 438.293V432.258H440.877V439.219C440.877 442.559 442.283 444.223 445.108 444.223C446.455 444.223 447.557 443.707 448.424 442.676H448.483V444H452.244V432.258H448.483ZM460.898 444.234C462.07 444.234 463.113 444.035 464.027 443.637C464.941 443.238 465.679 442.711 466.218 442.055L463.652 439.816C463.019 440.531 462.222 440.883 461.261 440.883C460.863 440.883 460.5 440.824 460.171 440.684C459.843 440.543 459.562 440.355 459.328 440.109C459.093 439.875 458.906 439.582 458.777 439.23C458.648 438.891 458.589 438.516 458.589 438.105C458.589 437.309 458.824 436.652 459.316 436.148C459.796 435.645 460.429 435.387 461.226 435.387C462.21 435.387 463.019 435.773 463.652 436.523L466.16 434.379C465.574 433.629 464.835 433.055 463.933 432.645C463.019 432.246 462.07 432.035 461.085 432.035C459.867 432.035 458.789 432.293 457.828 432.809C456.867 433.324 456.128 434.039 455.601 434.965C455.062 435.902 454.804 436.957 454.804 438.141C454.804 439.336 455.062 440.391 455.601 441.316C456.128 442.254 456.855 442.969 457.781 443.473C458.695 443.988 459.738 444.234 460.898 444.234ZM472.341 444.223C473.091 444.223 473.7 444.164 474.18 444.023C474.661 443.883 475.141 443.684 475.622 443.414L474.696 440.648C474.309 440.848 473.923 440.941 473.536 440.941C473.196 440.941 472.962 440.824 472.833 440.59C472.704 440.355 472.645 440.027 472.645 439.605V435.316H475.493V432.258H472.645V428.109L468.895 428.508V432.258H467.571V435.316H468.895V440.309C468.895 441.598 469.2 442.57 469.833 443.227C470.454 443.895 471.286 444.223 472.341 444.223ZM479.904 430.863C480.561 430.863 481.123 430.664 481.568 430.254C482.014 429.844 482.248 429.316 482.248 428.672C482.248 428.039 482.014 427.523 481.568 427.113C481.123 426.703 480.561 426.492 479.904 426.492C479.471 426.492 479.072 426.586 478.721 426.773C478.369 426.961 478.088 427.219 477.877 427.547C477.666 427.875 477.561 428.25 477.561 428.672C477.561 429.316 477.783 429.844 478.229 430.254C478.674 430.664 479.236 430.863 479.904 430.863ZM478.029 444H481.768V432.258H478.029V444ZM490.867 444.234C492.085 444.234 493.187 443.988 494.148 443.473C495.109 442.957 495.847 442.242 496.386 441.316C496.925 440.391 497.195 439.336 497.195 438.141C497.195 436.957 496.925 435.902 496.386 434.965C495.847 434.039 495.109 433.324 494.148 432.809C493.187 432.293 492.085 432.035 490.867 432.035C489.929 432.035 489.074 432.188 488.288 432.492C487.492 432.797 486.824 433.219 486.273 433.758C485.722 434.297 485.288 434.941 484.984 435.691C484.679 436.441 484.527 437.262 484.527 438.141C484.527 439.031 484.679 439.852 484.984 440.602C485.288 441.352 485.722 441.996 486.273 442.535C486.824 443.074 487.492 443.484 488.288 443.789C489.074 444.094 489.929 444.234 490.867 444.234ZM490.867 440.895C490.128 440.895 489.519 440.637 489.038 440.109C488.546 439.594 488.312 438.938 488.312 438.141C488.312 437.344 488.546 436.676 489.027 436.16C489.495 435.645 490.117 435.387 490.867 435.387C491.593 435.387 492.202 435.645 492.683 436.16C493.163 436.676 493.41 437.332 493.41 438.141C493.41 438.938 493.163 439.605 492.671 440.121C492.179 440.637 491.581 440.895 490.867 440.895ZM507.149 432.035C506.458 432.035 505.813 432.176 505.204 432.457C504.594 432.738 504.055 433.148 503.598 433.676H503.575V432.258H499.825V444H503.575V438.105C503.575 437.52 503.657 437.016 503.844 436.594C504.032 436.184 504.278 435.879 504.606 435.68C504.923 435.492 505.298 435.387 505.731 435.387C506.165 435.387 506.516 435.469 506.774 435.609C507.032 435.75 507.243 436.008 507.383 436.383C507.524 436.758 507.606 437.25 507.606 437.883V444H511.356V436.957C511.356 436.066 511.251 435.293 511.051 434.637C510.84 433.992 510.548 433.477 510.161 433.102C509.774 432.727 509.34 432.457 508.848 432.293C508.356 432.129 507.782 432.035 507.149 432.035Z" fill="#001429"/>
<path d="M302.092 399.818C306.821 399.818 311.443 401.231 315.375 403.878C319.306 406.525 322.371 410.288 324.18 414.69C325.99 419.092 326.463 423.936 325.541 428.609C324.618 433.283 322.341 437.575 318.997 440.945C316.783 443.189 314.148 444.968 311.246 446.179C308.344 447.39 305.233 448.009 302.092 448V399.818ZM298.905 443.182C294.177 443.181 289.555 441.768 285.624 439.121C281.693 436.474 278.629 432.712 276.82 428.31C275.01 423.908 274.537 419.064 275.459 414.392C276.382 409.719 278.658 405.426 282.001 402.057C284.216 399.813 286.85 398.034 289.751 396.822C292.653 395.611 295.764 394.992 298.905 395V443.182Z" fill="#E8663D"/>
</svg>
